SplineFontDB: 3.2
FontName: AurebeshRed-Regular
FullName: Aurebesh Red Regular
FamilyName: Aurebesh Red
Weight: Regular
Copyright: CC-0 public domain
Version: 1.0
ItalicAngle: 0
UnderlinePosition: 55
UnderlineWidth: 37
Ascent: 800
Descent: 200
InvalidEm: 0
sfntRevision: 0x00010000
LayerCount: 2
Layer: 0 0 "Back" 1
Layer: 1 0 "Fore" 0
XUID: [1021 764 -1482030943 10335]
StyleMap: 0x0040
FSType: 4
OS2Version: 3
OS2_WeightWidthSlopeOnly: 0
OS2_UseTypoMetrics: 0
CreationTime: 1595014984
ModificationTime: 1595021309
PfmFamily: 81
TTFWeight: 400
TTFWidth: 5
LineGap: 0
VLineGap: 0
Panose: 0 0 4 0 0 0 0 0 0 0
OS2TypoAscent: 747
OS2TypoAOffset: 0
OS2TypoDescent: 0
OS2TypoDOffset: 0
OS2TypoLinegap: 0
OS2WinAscent: 996
OS2WinAOffset: 0
OS2WinDescent: 249
OS2WinDOffset: 0
HheadAscent: 996
HheadAOffset: 0
HheadDescent: -249
HheadDOffset: 0
OS2SubXSize: 374
OS2SubYSize: 374
OS2SubXOff: 0
OS2SubYOff: 0
OS2SupXSize: 374
OS2SupYSize: 374
OS2SupXOff: 0
OS2SupYOff: 374
OS2StrikeYSize: 37
OS2StrikeYPos: 149
OS2CapHeight: 872
OS2XHeight: 623
OS2Vendor: 'FSTR'
OS2CodePages: 00000001.00000000
OS2UnicodeRanges: 80000001.00000000.00000000.00000000
MarkAttachClasses: 1
DEI: 91125
LangName: 1033 "" "" "" "" "" "Version 1.0" "" "" "" "AurekFonts" "" "" "https://AurekFonts.github.io" "Creative Commons CC0 Public Domain Dedication" "http://creativecommons.org/publicdomain/zero/1.0/"
Encoding: UnicodeBmp
UnicodeInterp: none
NameList: AGL For New Fonts
DisplaySize: -72
AntiAlias: 1
FitToEm: 0
WinInfo: 0 25 10
BeginPrivate: 2
BlueValues 21 [0 0 623 623 872 872]
BlueShift 1 0
EndPrivate
BeginChars: 65537 100

StartChar: .notdef
Encoding: 65536 -1 0
Width: 847
Flags: W
HStem: 15 94<15 732> 185 94<15 732> 355 94<15 732> 525 94<15 732> 695 94<15 732>
LayerCount: 2
Fore
SplineSet
732 109 m 1
 732 15 l 1
 15 15 l 1
 15 109 l 1
 732 109 l 1
732 185 m 1
 15 185 l 1
 15 279 l 1
 732 279 l 1
 732 185 l 1
732 355 m 1
 15 355 l 1
 15 449 l 1
 732 449 l 1
 732 355 l 1
732 525 m 1
 15 525 l 1
 15 619 l 1
 732 619 l 1
 732 525 l 1
732 695 m 1
 15 695 l 1
 15 789 l 1
 732 789 l 1
 732 695 l 1
EndSplineSet
Validated: 1
EndChar

StartChar: exclam
Encoding: 33 33 2
Width: 847
GlyphClass: 2
Flags: W
HStem: 202.001 94.001<139.002 447.637> 451 95.001<139.001 448.076>
VStem: 512.263 95.3267<361.4 421.002 610.399 670.001>
LayerCount: 2
Fore
SplineSet
139.000859376 546.000976562 m 1
 374.000976562 546.000976562 l 2
 411.701399405 546.000977176 444.880082707 559.706753144 471.532163642 586.32317018 c 0
 495.287520804 609.467255021 509.036488567 637.820628316 512.261573128 670.000976562 c 1
 607.588288433 670.000976562 l 1
 604.334532066 611.641002325 581.822130639 562.030197827 539.396454687 519.604521875 c 0
 493.381700311 473.589767499 438.914717663 451 374 451 c 2
 139.000117187 451 l 1
 139.000117187 482.666992188 139.000859376 514.333984375 139.000859376 546.000976562 c 1
139.001834994 296.001953125 m 1
 374.001953125 296.001953125 l 2
 411.788875359 296.001953125 445.00280398 310.124728452 471.607574293 337.396718796 c 0
 495.317219665 360.527491109 509.04083516 388.855231525 512.26254969 421.001953125 c 1
 607.589264995 421.001953125 l 1
 604.335508628 362.641978888 581.823107202 313.031174389 539.39743125 270.605498437 c 0
 493.382676874 224.590744061 438.915694225 202.000976562 374.000976562 202.000976562 c 2
 139.001094695 202.000976562 l 1
 139.001094695 233.334635417 139.001834994 264.668294271 139.001834994 296.001953125 c 1
EndSplineSet
Validated: 524289
EndChar

StartChar: quotedbl
Encoding: 34 34 3
Width: 847
GlyphClass: 2
Flags: W
HStem: 513 94.9737<361.925 451>
VStem: 202 94<672.924 857> 451 95<608.286 857>
LayerCount: 2
Fore
SplineSet
202 857 m 1
 296 857 l 1
 296 747 l 2
 296 708.632232857 310.061675633 675.059997358 337.394668352 648.394479544 c 0
 363.402761977 621.736743218 396.05530508 607.973659182 433.272958123 607.973659182 c 0
 439.227661269 607.973659182 445.090514548 608.172074463 451 608.285772837 c 1
 451 857 l 1
 546 857 l 1
 546 513 l 1
 436 513 l 2
 371.08515205 513 316.619246149 535.588821038 270.604521875 581.603545313 c 0
 224.589767499 627.618299689 202 682.085282337 202 747 c 2
 202 857 l 1
EndSplineSet
Validated: 524289
EndChar

StartChar: numbersign
Encoding: 35 35 4
Width: 847
GlyphClass: 2
Flags: W
HStem: 15 93.999<15 139 234 389 483 732> 513 95<15 264 359 513 608 732>
VStem: 139 95<108.999 323.075> 264 95<456.295 512.999> 389 94<109 258.406> 513 95<394.452 512.999>
LayerCount: 2
Fore
SplineSet
15 108.999023438 m 1
 139 108.999023438 l 1
 139 248.999023438 l 2
 139 313.9137411 161.589767499 368.380723749 207.604521875 414.395478125 c 0
 222.713998292 429.504954542 238.962771947 441.987689349 256.426118188 451.966874857 c 2
 264 456.294863925 l 1
 264 513 l 1
 15 513 l 1
 15 608 l 1
 732 608 l 1
 732 513 l 1
 608 513 l 1
 608 325.238164282 l 1
 576.267289424 321.966907443 547.986865113 308.195908863 524.395478125 284.604521875 c 0
 497.792804427 258.001848177 483.738294994 224.934038744 483 187.299370329 c 2
 483 109 l 1
 732 109 l 1
 732 15 l 1
 15 15 l 1
 15 108.999023438 l 1
389 108.999023438 m 1
 389 186.998046875 l 2
 389 251.912764538 411.589767499 306.379747186 457.604521875 352.394501563 c 0
 472.788866748 367.578846436 488.786124122 380.102680034 505.631118263 390.085203417 c 2
 513 394.452081413 l 1
 513 512.999023438 l 1
 359 512.999023438 l 1
 359 388.259620003 l 1
 326.853099381 385.037890179 298.525224276 371.314141549 275.394380371 347.604257675 c 0
 248.061576247 320.938787823 234 287.366654315 234 248.999023438 c 2
 234 108.999023438 l 1
 389 108.999023438 l 1
EndSplineSet
Validated: 524289
EndChar

StartChar: dollar
Encoding: 36 36 5
Width: 847
GlyphClass: 2
Flags: W
HStem: 264 95.001<446.113 529.903> 638.001 94<0.000976562 123.749 212.775 358.026 446.114 593.001>
VStem: 123.749 89.0252<513.001 638.001 732.001 857.001> 358.025 88.0881<15 264 513.001 638.001 732.001 857.001> 593.001 94<423.925 638.001>
LayerCount: 2
Fore
SplineSet
460.170787883 359.000976562 m 2
 495.531931751 359.000976562 526.871020047 372.708007812 552.435553017 399.250976562 c 0
 578.377929688 425.443359375 592.270507812 459.75 593.000976562 497.70703125 c 2
 593.000976562 638.000976562 l 1
 446.11418411 638.000976562 l 1
 446.11418411 513.000976562 l 1
 358.026133795 513.000976562 l 1
 358.026133795 638.000976562 l 1
 212.774561468 638.000976562 l 1
 212.774561468 513.000976562 l 1
 123.749404235 513.000976562 l 1
 123.749404235 638.000976562 l 1
 0.0009765625 638.000976562 l 1
 0.0009765625 732.000976562 l 1
 123.749404235 732.000976562 l 1
 123.749404235 857.000976562 l 1
 212.774561468 857.000976562 l 1
 212.774561468 732.000976562 l 1
 358.026133795 732.000976562 l 1
 358.026133795 857.000976562 l 1
 446.11418411 857.000976562 l 1
 446.11418411 732.000976562 l 1
 687.000976562 732.000976562 l 1
 687.000976562 498.000976562 l 2
 687.000976562 433.0859375 664.411132812 378.619140625 618.396484375 332.604492188 c 0
 572.381835938 286.58984375 521.002204943 264 460.16987274 264 c 2
 446.113268966 264 l 1
 446.113268966 15 l 1
 358.025218652 15 l 1
 358.025218652 129.666992188 358.026133795 244.333984375 358.026133795 359.000976562 c 1
 460.170787883 359.000976562 l 2
EndSplineSet
Validated: 524289
EndChar

StartChar: percent
Encoding: 37 37 6
Width: 847
GlyphClass: 2
Flags: W
HStem: 15.002 93.9961<445.841 593> 263.998 95.0039<158.964 212.775 508.081 593> 513.001 95.001<94.002 178.965 474.227 530.37> 762.002 95<94.002 241.161>
VStem: 0.000976562 94.001<15 198.074 608.002 762.002> 240.886 89.0279<670.758 762.002> 358.026 87.8144<108.998 198.076> 593 94.002<108.998 263.998 672.925 857.001>
LayerCount: 2
Fore
SplineSet
618.396484375 581.604492188 m 0
 575.970703125 539.178710938 528.916416666 516.666015625 474.226512437 513.413085938 c 1
 474.226512437 545.189453125 474.227427581 576.966796875 474.227427581 608.744140625 c 1
 503.864357158 611.923828125 530.312010849 625.28125 552.435610433 648.250976562 c 0
 578.377929688 674.443359375 592.270507812 708.75 593.000976562 746.70703125 c 2
 593.000976562 857.000976562 l 1
 687.000976562 857.000976562 l 1
 687.000976562 747.000976562 l 2
 687.000976562 682.0859375 664.411132812 627.619140625 618.396484375 581.604492188 c 0
329.913837658 857.001953125 m 1
 329.913837658 747.001953125 l 2
 329.913837658 682.146484375 308.414366095 627.637695312 264.686968564 581.60546875 c 0
 221.566311323 535.590820312 170.525085131 513.000976562 109.000976562 513.000976562 c 2
 0.0009765625 513.000976562 l 1
 0.0009765625 627.66796875 0.001953125 742.334960938 0.001953125 857.001953125 c 1
 329.913837658 857.001953125 l 1
109.001953125 608.001953125 m 2
 145.054804939 608.001953125 176.393901848 621.708984375 201.958441842 648.251953125 c 0
 227.185293802 674.444335938 240.201383022 708.750976562 240.885910529 746.708007812 c 2
 241.161368791 762.001953125 l 1
 94.001953125 762.001953125 l 1
 94.001953125 608.001953125 l 1
 109.001953125 608.001953125 l 2
422.315899705 289.396484375 m 0
 465.449368958 335.424804688 516.532691762 358.354492188 578.077148438 359.001953125 c 2
 687.001953125 359.001953125 l 1
 687.001953125 15.001953125 l 1
 358.027052931 15.001953125 l 1
 358.027052931 51.3349609375 358.026137787 87.6669921875 358.026137787 124 c 0
 358.026137787 188.915039062 379.195242464 243.381835938 422.315899705 289.396484375 c 0
68.6044921875 289.39453125 m 0
 111.025390625 331.815429688 158.09560304 354.616210938 212.774525544 358.436523438 c 1
 212.774525544 263.23828125 l 1
 183.037845301 259.966796875 156.53619813 246.196289062 134.428155989 222.604492188 c 0
 108.734375 195.942382812 94.736328125 162.516601562 94.0009765625 124.293945312 c 2
 94.0009765625 15 l 1
 0.0009765625 15 l 1
 0.0009765625 51.3330078125 0 87.6650390625 0 123.998046875 c 0
 0 188.913085938 22.58984375 243.379882812 68.6044921875 289.39453125 c 0
593 263.998046875 m 1
 578 263.998046875 l 2
 541.835500651 263.998046875 510.439664832 249.850585938 484.90532458 222.602539062 c 0
 459.920070564 195.940429688 446.805145822 162.514648438 446.116042596 124.291992188 c 2
 445.840584334 108.998046875 l 1
 593 108.998046875 l 1
 593 263.998046875 l 1
EndSplineSet
Validated: 524289
EndChar

StartChar: ampersand
Encoding: 38 38 7
Width: 847
GlyphClass: 2
Flags: W
HStem: 15 93.999<174.924 637.999> 263.999 95<263.999 637.999> 512.999 95.001<174.924 637.999>
VStem: 15.4117 94.3491<174.397 233.999 388.999 448.577> 637.999 94.001<108.999 263.999 358.999 512.999>
LayerCount: 2
Fore
SplineSet
732 608 m 1
 732 15 l 1
 249 15 l 2
 184.08496197 15 129.618108286 37.588005776 83.6035453125 83.60256875 c 0
 41.1778693609 126.028244702 18.6654679342 175.6390492 15.4117115672 233.999023438 c 1
 109.760859155 233.999023438 l 1
 113.032115995 202.266312862 126.803114575 173.98588855 150.394501563 150.394501563 c 0
 177.056269545 123.73273358 210.482339745 109.734434285 248.705399296 108.999023438 c 2
 637.999023438 108.999023438 l 1
 637.999023438 263.999023438 l 1
 263.999023438 263.999023438 l 1
 263.999023438 358.999023438 l 1
 637.999023438 358.999023438 l 1
 637.999023438 512.999023438 l 1
 248.999023438 512.999023438 l 2
 211.145940742 512.999023438 177.642570703 498.851614453 150.394501563 471.603545312 c 0
 127.313220929 448.522264679 113.680181279 420.574146216 109.99319132 388.999023438 c 1
 15.4117115672 388.999023438 l 1
 18.6654679342 447.358997675 41.1778693609 496.969802173 83.6035453125 539.395478125 c 0
 129.618299689 585.410232501 184.085282337 608 249 608 c 2
 732 608 l 1
EndSplineSet
Validated: 524289
EndChar

StartChar: quotesingle
Encoding: 39 39 8
Width: 847
GlyphClass: 2
Flags: W
HStem: 762 95<359 483>
VStem: 264 95<513 762>
LayerCount: 2
Fore
SplineSet
264 857 m 1
 483 857 l 1
 483 762 l 1
 359 762 l 1
 359 513 l 1
 264 513 l 1
 264 857 l 1
EndSplineSet
Validated: 1
EndChar

StartChar: parenleft
Encoding: 40 40 9
Width: 847
GlyphClass: 2
Flags: W
HStem: 389 94<264 389>
VStem: 389 94<15 389 483 857>
LayerCount: 2
Fore
SplineSet
264 389 m 1
 264 483 l 1
 389 483 l 1
 389 857 l 1
 483 857 l 1
 483 15 l 1
 389 15 l 1
 389 389 l 1
 264 389 l 1
EndSplineSet
Validated: 1
EndChar

StartChar: parenright
Encoding: 41 41 10
Width: 847
GlyphClass: 2
Flags: W
HStem: 389 94<359 483>
VStem: 264 95<15 389 483 857>
LayerCount: 2
Fore
SplineSet
264 857 m 1
 359 857 l 1
 359 483 l 1
 483 483 l 1
 483 389 l 1
 359 389 l 1
 359 15 l 1
 264 15 l 1
 264 857 l 1
EndSplineSet
Validated: 1
EndChar

StartChar: asterisk
Encoding: 42 42 11
Width: 847
GlyphClass: 2
Flags: W
HStem: 576 94<172 326 421 576>
VStem: 77 95<451 576 670 794> 326 95<389 576 670 857> 576 94<451 576 670 794>
LayerCount: 2
Fore
SplineSet
172 451 m 1
 77 451 l 1
 77 794 l 1
 172 794 l 1
 172 670 l 1
 326 670 l 1
 326 857 l 1
 421 857 l 1
 421 670 l 1
 576 670 l 1
 576 794 l 1
 670 794 l 1
 670 451 l 1
 576 451 l 1
 576 576 l 1
 421 576 l 1
 421 389 l 1
 326 389 l 1
 326 576 l 1
 172 576 l 1
 172 451 l 1
EndSplineSet
Validated: 1
EndChar

StartChar: plus
Encoding: 43 43 12
Width: 847
GlyphClass: 2
Flags: W
HStem: 576 94<139 326 421 608>
VStem: 326 95<389 576>
LayerCount: 2
Fore
SplineSet
139 576 m 1
 139 670 l 1
 608 670 l 1
 608 576 l 1
 421 576 l 1
 421 389 l 1
 326 389 l 1
 326 576 l 1
 139 576 l 1
EndSplineSet
Validated: 1
EndChar

StartChar: comma
Encoding: 44 44 13
Width: 847
GlyphClass: 2
Flags: W
HStem: 15 219<326 421>
VStem: 326 95<15 234>
LayerCount: 2
Fore
SplineSet
326 234 m 1
 421 234 l 1
 421 15 l 1
 326 15 l 1
 326 234 l 1
EndSplineSet
Validated: 1
EndChar

StartChar: hyphen
Encoding: 45 45 14
Width: 847
GlyphClass: 2
Flags: W
HStem: 576 94<139 608>
LayerCount: 2
Fore
SplineSet
139 670 m 1
 608 670 l 1
 608 576 l 1
 139 576 l 1
 139 670 l 1
EndSplineSet
Validated: 1
EndChar

StartChar: period
Encoding: 46 46 15
Width: 847
GlyphClass: 2
Flags: W
HStem: 15 219<202 296 451 546>
VStem: 202 94<15 234> 451 95<15 234>
LayerCount: 2
Fore
SplineSet
451 234 m 1
 546 234 l 1
 546 15 l 1
 451 15 l 1
 451 234 l 1
202 234 m 1
 296 234 l 1
 296 15 l 1
 202 15 l 1
 202 234 l 1
EndSplineSet
Validated: 1
EndChar

StartChar: slash
Encoding: 47 47 16
Width: 847
GlyphClass: 2
Flags: W
HStem: 389 94.001<299.485 447.636>
VStem: 139 94.9999<15 323.076> 513.001 95<548.925 857.001>
LayerCount: 2
Fore
SplineSet
374.000976562 483.000976562 m 0
 411.787898796 483.000976562 445.001827417 497.123751889 471.606597731 524.395742234 c 0
 498.939400571 551.061212785 513.000976562 584.633346032 513.000976562 623.000976562 c 2
 513.000976562 857.000976562 l 1
 608.000976562 857.000976562 l 1
 608.000976562 623.000976562 l 2
 608.000976562 558.0862589 585.411209064 503.619276251 539.396454687 457.604521875 c 0
 493.381700311 411.589767499 438.914717663 389 374 389 c 0
 335.632184214 389 302.059913785 374.938292352 275.394380371 347.605234237 c 0
 248.061576247 320.939764385 234 287.367630877 234 249 c 2
 234 15 l 1
 139.000058829 15 l 1
 139.000058829 93 139.000976562 171 139.000976562 249 c 0
 139.000976562 313.914717663 161.590744061 368.381700311 207.605498437 414.396454688 c 0
 253.590701686 460.381657936 308.378833847 483.000976562 374.000976562 483.000976562 c 0
EndSplineSet
Validated: 524289
EndChar

StartChar: zero
Encoding: 48 48 17
Width: 847
GlyphClass: 2
Flags: W
HStem: 15 94<94 593> 264 95<240.887 446.113> 513 95<94 593>
VStem: 0 94<109 513> 593 94<109 513>
LayerCount: 2
Fore
SplineSet
687 15 m 1
 0 15 l 1
 0 608 l 1
 687 608 l 1
 687 15 l 1
593 513 m 1
 94 513 l 1
 94 109 l 1
 593 109 l 1
 593 513 l 1
446.113207547 359 m 1
 446.113207547 264 l 1
 240.886792453 264 l 1
 240.886792453 359 l 1
 446.113207547 359 l 1
EndSplineSet
Validated: 524289
EndChar

StartChar: one
Encoding: 49 49 18
Width: 847
GlyphClass: 2
Flags: W
HStem: 15 94<0 358.025 446.113 687> 513 95<0 358.025>
VStem: 358.025 88.0881<109 513>
LayerCount: 2
Fore
SplineSet
687 15 m 1
 0 15 l 1
 0 109 l 1
 358.025157233 109 l 1
 358.025157233 513 l 1
 0 513 l 1
 0 608 l 1
 446.113207547 608 l 1
 446.113207547 109 l 1
 687 109 l 1
 687 15 l 1
EndSplineSet
Validated: 524289
EndChar

StartChar: two
Encoding: 50 50 19
Width: 847
GlyphClass: 2
Flags: W
HStem: 15 94<0 687> 264 95<0 593> 513 95<0 593>
VStem: 593 94<359 513>
LayerCount: 2
Fore
SplineSet
0 264 m 1
 0 359 l 1
 593 359 l 1
 593 513 l 1
 0 513 l 1
 0 608 l 1
 687 608 l 1
 687 264 l 1
 0 264 l 1
687 15 m 1
 0 15 l 1
 0 109 l 1
 687 109 l 1
 687 15 l 1
EndSplineSet
Validated: 1
EndChar

StartChar: three
Encoding: 51 51 20
Width: 847
GlyphClass: 2
Flags: W
HStem: 15 94<0 593> 264 95<0 446.113> 513 95<0 593>
VStem: 593 94<109 513>
LayerCount: 2
Fore
SplineSet
687 15 m 1
 0 15 l 1
 0 109 l 1
 593 109 l 1
 593 513 l 1
 0 513 l 1
 0 608 l 1
 687 608 l 1
 687 15 l 1
0 264 m 1
 0 359 l 1
 446.113207547 359 l 1
 446.113207547 264 l 1
 0 264 l 1
EndSplineSet
Validated: 524289
EndChar

StartChar: four
Encoding: 52 52 21
Width: 847
GlyphClass: 2
Flags: W
HStem: 264 95<94 593>
VStem: 0 94<359 608> 593 94<15 264 359 608>
LayerCount: 2
Fore
SplineSet
0 264 m 1
 0 608 l 1
 94 608 l 1
 94 359 l 1
 593 359 l 1
 593 608 l 1
 687 608 l 1
 687 15 l 1
 593 15 l 1
 593 264 l 1
 0 264 l 1
EndSplineSet
Validated: 1
EndChar

StartChar: five
Encoding: 53 53 22
Width: 847
GlyphClass: 2
Flags: W
HStem: 15 94<0 593> 264 95<0 593> 513 95<0 687>
VStem: 593 94<109 264>
LayerCount: 2
Fore
SplineSet
0 513 m 1
 0 608 l 1
 687 608 l 1
 687 513 l 1
 0 513 l 1
687 15 m 1
 0 15 l 1
 0 109 l 1
 593 109 l 1
 593 264 l 1
 0 264 l 1
 0 359 l 1
 687 359 l 1
 687 15 l 1
EndSplineSet
Validated: 1
EndChar

StartChar: six
Encoding: 54 54 23
Width: 847
GlyphClass: 2
Flags: W
HStem: 15 94<94 593> 264 95<94 593> 513 95<0 687>
VStem: 0 94<109 264> 593 94<109 264>
LayerCount: 2
Fore
SplineSet
0 513 m 1
 0 608 l 1
 687 608 l 1
 687 513 l 1
 0 513 l 1
687 15 m 1
 0 15 l 1
 0 359 l 1
 687 359 l 1
 687 15 l 1
593 264 m 1
 94 264 l 1
 94 109 l 1
 593 109 l 1
 593 264 l 1
EndSplineSet
Validated: 1
EndChar

StartChar: seven
Encoding: 55 55 24
Width: 847
GlyphClass: 2
Flags: W
HStem: 513 95<0 593>
VStem: 593 94<15 513>
LayerCount: 2
Fore
SplineSet
0 513 m 1
 0 608 l 1
 687 608 l 1
 687 15 l 1
 593 15 l 1
 593 513 l 1
 0 513 l 1
EndSplineSet
Validated: 1
EndChar

StartChar: eight
Encoding: 56 56 25
Width: 847
GlyphClass: 2
Flags: W
HStem: 15 94<94 593> 264 95<94 593> 513 95<94 593>
VStem: 0 94<109 264 359 513> 593 94<109 264 359 513>
LayerCount: 2
Fore
SplineSet
687 15 m 1
 0 15 l 1
 0 608 l 1
 687 608 l 1
 687 15 l 1
593 513 m 1
 94 513 l 1
 94 359 l 1
 593 359 l 1
 593 513 l 1
593 264 m 1
 94 264 l 1
 94 109 l 1
 593 109 l 1
 593 264 l 1
EndSplineSet
Validated: 1
EndChar

StartChar: nine
Encoding: 57 57 26
Width: 847
GlyphClass: 2
Flags: W
HStem: 15 94<0 687> 264 95<94 593> 513 95<94 593>
VStem: 0 94<359 513> 593 94<359 513>
LayerCount: 2
Fore
SplineSet
0 264 m 1
 0 608 l 1
 687 608 l 1
 687 264 l 1
 0 264 l 1
593 513 m 1
 94 513 l 1
 94 359 l 1
 593 359 l 1
 593 513 l 1
687 15 m 1
 0 15 l 1
 0 109 l 1
 687 109 l 1
 687 15 l 1
EndSplineSet
Validated: 1
EndChar

StartChar: colon
Encoding: 58 58 27
Width: 847
GlyphClass: 2
Flags: W
HStem: 15 94.001<202 450.998> 513.001 95<201.998 385.074>
VStem: 450.998 95.002<109.001 447.636>
LayerCount: 2
Fore
SplineSet
201.99828314 109.000976562 m 1
 450.998046875 109.000976562 l 1
 450.998046875 374.000976562 l 2
 450.998046875 411.787850463 436.875305496 445.001743382 409.603381928 471.606497009 c 0
 382.937894135 498.939365604 349.365725109 513.000976562 310.998046875 513.000976562 c 2
 201.998046875 513.000976562 l 1
 201.998046875 608.000976562 l 1
 310.998046875 608.000976562 l 2
 375.912764538 608.000976562 430.379747186 585.411209064 476.394501563 539.396454687 c 0
 522.422625034 493.368331216 545.352465034 438.85689704 546 373.92479204 c 2
 546 15 l 1
 201.999763739 15 l 1
 201.999763739 46.3336588542 201.99828314 77.6673177083 201.99828314 109.000976562 c 1
EndSplineSet
Validated: 524289
EndChar

StartChar: semicolon
Encoding: 59 59 28
Width: 847
GlyphClass: 2
Flags: W
VStem: 326 95<15 857>
LayerCount: 2
Fore
SplineSet
326 857 m 1
 421 857 l 1
 421 15 l 1
 326 15 l 1
 326 857 l 1
EndSplineSet
Validated: 1
EndChar

StartChar: less
Encoding: 60 60 29
Width: 847
GlyphClass: 2
Flags: W
HStem: 389 94<202 451>
VStem: 451 95<264 389 483 608>
LayerCount: 2
Fore
SplineSet
202 389 m 1
 202 483 l 1
 451 483 l 1
 451 608 l 1
 546 608 l 1
 546 264 l 1
 451 264 l 1
 451 389 l 1
 202 389 l 1
EndSplineSet
Validated: 1
EndChar

StartChar: equal
Encoding: 61 61 30
Width: 847
GlyphClass: 2
Flags: W
HStem: 451 219<202 296 451 546>
VStem: 202 94<451 670> 451 95<451 670>
LayerCount: 2
Fore
SplineSet
451 670 m 1
 546 670 l 1
 546 451 l 1
 451 451 l 1
 451 670 l 1
202 670 m 1
 296 670 l 1
 296 451 l 1
 202 451 l 1
 202 670 l 1
EndSplineSet
Validated: 1
EndChar

StartChar: greater
Encoding: 62 62 31
Width: 847
GlyphClass: 2
Flags: W
HStem: 389 94<296 546>
VStem: 202 94<264 389 483 608>
LayerCount: 2
Fore
SplineSet
202 608 m 1
 296 608 l 1
 296 483 l 1
 546 483 l 1
 546 389 l 1
 296 389 l 1
 296 264 l 1
 202 264 l 1
 202 608 l 1
EndSplineSet
Validated: 1
EndChar

StartChar: question
Encoding: 63 63 32
Width: 847
GlyphClass: 2
Flags: W
HStem: 15.4127 94.354<389 448.602> 762.002 95<234 448.076>
VStem: 139 95<638.002 762.002> 513 95.001<174.925 697.077>
LayerCount: 2
Fore
SplineSet
608.000976562 249.000976562 m 2
 608.000976562 184.0862589 585.411209064 129.619276251 539.396454687 83.604521875 c 0
 496.970778736 41.1788459234 447.359974237 18.6664444967 389 15.4126881297 c 1
 389 109.766670948 l 1
 420.605514032 113.040624043 448.580676545 126.794332456 471.605621168 150.396718796 c 0
 498.938424008 177.062189348 513 210.634322595 513 249.001953125 c 2
 513 623.001953125 l 2
 512.999998777 660.821083877 498.877956275 694.298302254 471.677806111 721.533141638 c 0
 445.716877367 748.179692927 413.37925697 762.028293943 376.675054738 762.028293943 c 0
 375.736951587 762.028293943 374.796637262 762.019498029 373.854118019 762.001953125 c 2
 234 762.001953125 l 1
 234 638.001953125 l 1
 139 638.001953125 l 1
 139 857.001953125 l 1
 374 857.001953125 l 2
 438.914717663 857.001953125 493.381700311 834.412185626 539.396454687 788.39743125 c 0
 585.411209064 742.382676874 608.000976562 687.915694225 608.000976562 623.000976562 c 2
 608.000976562 249.000976562 l 2
EndSplineSet
Validated: 524289
EndChar

StartChar: at
Encoding: 64 64 33
Width: 847
GlyphClass: 2
Flags: W
HStem: 15 94.002<264 572.076> 264.002 95<109 483> 513.002 95<264 572.076>
VStem: 15 94<15.002 264.002 359.002 608.002> 638 94.001<174.925 447.637>
LayerCount: 2
Fore
SplineSet
264 109.001953125 m 1
 498 109.001953125 l 2
 535.853082695 109.001953125 569.356452735 123.14936211 596.604521875 150.39743125 c 0
 623.266289857 177.059199232 637.264589153 210.485269433 638 248.708328984 c 2
 638 374.001953125 l 2
 638 411.788827026 623.877258621 445.002719945 596.605335054 471.607473571 c 0
 569.939847261 498.940342166 536.367678234 513.001953125 498 513.001953125 c 2
 264 513.001953125 l 1
 264 608.001953125 l 1
 498 608.001953125 l 2
 562.914717663 608.001953125 617.381700311 585.412185626 663.396454687 539.39743125 c 0
 709.411209064 493.382676874 732.000976562 438.915694225 732.000976562 374.000976562 c 2
 732.000976562 249.000976562 l 2
 732.000976562 184.0862589 709.411209064 129.619276251 663.396454687 83.604521875 c 0
 617.381700311 37.5897674988 562.914717663 15 498 15 c 2
 264 15 l 1
 264 109.001953125 l 1
15 608.001953125 m 1
 109 608.001953125 l 1
 109 359.001953125 l 1
 483 359.001953125 l 1
 483 264.001953125 l 1
 109 264.001953125 l 1
 109 15.001953125 l 1
 15 15.001953125 l 1
 15 608.001953125 l 1
EndSplineSet
Validated: 524289
EndChar

StartChar: A
Encoding: 65 65 34
Width: 847
GlyphClass: 2
Flags: W
HStem: 264.001 95.001<94.001 529.874> 513 95.001<94.001 529.903>
VStem: 0.000976562 94<15.001 264.001 608.001 857.001> 593.001 94<15.001 198.077 672.925 857.001>
LayerCount: 2
Fore
SplineSet
94.0009765625 857.000976562 m 1
 94.0009765625 608.000976562 l 1
 460.170773205 608.000976562 l 2
 495.531921931 608.000976562 526.871014533 621.708007812 552.435551016 648.250976562 c 0
 578.377929688 674.443359375 592.270507812 708.75 593.000976562 746.70703125 c 2
 593.000976562 857.000976562 l 1
 687.000976562 857.000976562 l 1
 687.000976562 747.000976562 l 2
 687.000976562 682.0859375 664.411132812 627.619140625 618.396484375 581.604492188 c 0
 572.381835938 535.58984375 521.002198623 513 460.169858061 513 c 2
 0 513 l 1
 0 627.666992188 0.0009765625 742.333984375 0.0009765625 857.000976562 c 1
 94.0009765625 857.000976562 l 1
460.169858061 359.001953125 m 2
 520.946374863 359.001953125 572.364257812 336.059570312 618.396484375 289.397460938 c 0
 664.411132812 243.3828125 687.000976562 188.916015625 687.000976562 124.000976562 c 2
 687.000976562 15.0009765625 l 1
 593.000976562 15.0009765625 l 1
 593.000976562 124.000976562 l 2
 593.000976562 161.854492188 578.853515625 195.357421875 552.573737699 222.60546875 c 0
 527.588487116 249.267578125 496.264951955 263.265625 460.446231428 264.000976562 c 2
 94.0009765625 264.000976562 l 1
 94.0009765625 15.0009765625 l 1
 0.0009765625 15.0009765625 l 1
 0.0009765625 129.66796875 0 244.334960938 0 359.001953125 c 1
 460.169858061 359.001953125 l 2
EndSplineSet
Validated: 524289
EndChar

StartChar: B
Encoding: 66 66 35
Width: 847
GlyphClass: 2
Flags: W
HStem: 15 94.001<157.096 529.676> 389 94<240.885 446.111> 762 95.001<157.096 529.902>
VStem: -0.00195312 94.002<174.925 359.001 513 697.076> 592.999 94<174.925 359.001 513 697.076>
LayerCount: 2
Fore
SplineSet
593 513 m 1
 593 623 l 2
 593 660.819335938 578.877929688 694.295898438 552.641394934 721.53125 c 0
 528.25830549 748.237304688 497.634850976 762.026367188 462.724863247 762.026367188 c 0
 461.830767827 762.026367188 460.934842119 762.017578125 460.035255836 762 c 2
 226.830095199 762 l 2
 191.468941614 762 160.129844706 748.29296875 134.565304711 721.75 c 0
 108.623046875 695.557617188 94.73046875 661.250976562 94 623.293945312 c 2
 94 513 l 1
 0 513 l 1
 0 549.666992188 -0.001953125 586.333007812 -0.001953125 623 c 0
 -0.001953125 687.915039062 22.587890625 742.381835938 68.6025390625 788.396484375 c 0
 114.6171875 834.411132812 165.996831135 857.000976562 226.829180055 857.000976562 c 2
 460.16886682 857.000976562 l 2
 521.00121574 857.000976562 572.380859375 834.411132812 618.395507812 788.396484375 c 0
 664.41015625 742.381835938 687 687.915039062 687 623 c 2
 687 513 l 1
 593 513 l 1
446.111344039 483 m 1
 446.111344039 389 l 1
 240.884872548 389 l 1
 240.884872548 483 l 1
 446.111344039 483 l 1
68.603515625 83.6044921875 m 0
 22.5888671875 129.619140625 -0.0009765625 184.0859375 -0.0009765625 249.000976562 c 2
 -0.0009765625 359.000976562 l 1
 93.9990234375 359.000976562 l 1
 93.9990234375 249.000976562 l 2
 93.9990234375 211.147460938 108.146484375 177.64453125 134.426202864 150.396484375 c 0
 159.411456881 123.734375 190.734996345 109.736328125 226.553721794 109.000976562 c 2
 460.16886682 109.000976562 l 2
 495.64166794 109.000976562 527.037503759 123.1484375 552.571844011 150.396484375 c 0
 578.265625 177.05859375 592.263671875 210.484375 592.999023438 248.70703125 c 2
 592.999023438 359.000976562 l 1
 686.999023438 359.000976562 l 1
 686.999023438 249.000976562 l 2
 686.999023438 184.0859375 664.409179688 129.619140625 618.39453125 83.6044921875 c 0
 572.379882812 37.58984375 521.000300596 15 460.167951676 15 c 2
 226.828264912 15 l 2
 165.995915991 15 114.618164062 37.58984375 68.603515625 83.6044921875 c 0
EndSplineSet
Validated: 524289
EndChar

StartChar: C
Encoding: 67 67 36
Width: 847
GlyphClass: 2
Flags: W
HStem: 762 95<0 123.748>
VStem: 123.748 89.0252<264 762> 358.025 88.0881<264 608> 593 94<15 608>
LayerCount: 2
Fore
SplineSet
0 762 m 1
 0 857 l 1
 212.773584906 857 l 1
 212.773584906 264 l 1
 123.748427673 264 l 1
 123.748427673 762 l 1
 0 762 l 1
687 608 m 1
 687 15 l 1
 593 15 l 1
 593 608 l 1
 687 608 l 1
446.113207547 608 m 1
 446.113207547 264 l 1
 358.025157233 264 l 1
 358.025157233 608 l 1
 446.113207547 608 l 1
EndSplineSet
Validated: 524289
EndChar

StartChar: D
Encoding: 68 68 37
Width: 847
GlyphClass: 2
Flags: W
HStem: 389.001 94<123.749 358.026 446.113 529.678> 762.001 95<0.000976562 593.001>
VStem: 358.025 88.0881<15 389> 593.001 94<548.925 762.001>
LayerCount: 2
Fore
SplineSet
123.749404235 483.000976562 m 1
 460.170787883 483.000976562 l 2
 495.643579255 483.000976562 527.039406447 497.1484375 552.573739682 524.396484375 c 0
 578.267578125 551.05859375 592.265625 584.484375 593.000976562 622.70703125 c 2
 593.000976562 762.000976562 l 1
 0.0009765625 762.000976562 l 1
 0.0009765625 857.000976562 l 1
 687.000976562 857.000976562 l 1
 687.000976562 623.000976562 l 2
 687.000976562 558.0859375 664.411132812 503.619140625 618.396484375 457.604492188 c 0
 572.381835938 411.58984375 521.002204943 389 460.16987274 389 c 2
 446.113268966 389 l 1
 446.113268966 15 l 1
 358.025218652 15 l 1
 358.025218652 134.666992188 358.026133795 254.333984375 358.026133795 374.000976562 c 2
 358.026133795 389.000976562 l 1
 123.749404235 389.000976562 l 1
 123.749404235 483.000976562 l 1
EndSplineSet
Validated: 524289
EndChar

StartChar: E
Encoding: 69 69 38
Width: 847
GlyphClass: 2
Flags: W
HStem: 15 94.001<94.001 178.964> 762.001 95<329.913 474.227 563.253 687.001>
VStem: 0 94.001<109.001 857.001> 240.888 89.0252<173.038 762.001> 474.227 89.0252<15.001 762.001>
LayerCount: 2
Fore
SplineSet
94.0009765625 857.000976562 m 1
 94.0009765625 109.000976562 l 1
 109.000976562 109.000976562 l 2
 145.165533873 109.000976562 176.561365378 123.1484375 202.095702121 150.396484375 c 0
 227.080952705 177.05859375 240.198621075 210.484375 240.887724207 248.70703125 c 2
 240.887724207 857.000976562 l 1
 687.000976562 857.000976562 l 1
 687.000976562 762.000976562 l 1
 563.252548375 762.000976562 l 1
 563.252548375 15.0009765625 l 1
 474.22737891 15.0009765625 l 1
 474.22737891 762.000976562 l 1
 329.912893672 762.000976562 l 1
 329.912893672 249.000976562 l 2
 329.912893672 184.145507812 308.413425063 129.63671875 264.68603354 83.6044921875 c 0
 221.565382224 37.58984375 170.524163045 15 109 15 c 2
 0 15 l 1
 0 295.666992188 0.0009765625 576.333984375 0.0009765625 857.000976562 c 1
 94.0009765625 857.000976562 l 1
EndSplineSet
Validated: 524289
EndChar

StartChar: F
Encoding: 70 70 39
Width: 847
GlyphClass: 2
Flags: W
HStem: 15 94<157.854 223.55 391.945 687.001> 389 94<94.002 240.888 329.913 687.001> 762 95<123.749 240.888>
VStem: 0.000976562 94.001<174.924 388.999> 240.888 89.0252<172.179 388.999 483 762>
LayerCount: 2
Fore
SplineSet
329.184472042 61.826171875 m 2
 322.193691038 67.654296875 l 1
 223.550375884 15.0224609375 l 1
 164.161224941 15.822265625 113.791015625 38.41796875 68.60546875 83.603515625 c 0
 22.5908203125 129.618164062 0.0009765625 184.084960938 0.0009765625 249 c 2
 0.0009765625 483 l 1
 240.887769015 483 l 1
 240.887769015 762 l 1
 123.749404235 762 l 1
 123.749404235 857 l 1
 329.912926248 857 l 1
 329.912926248 483 l 1
 687.000976562 483 l 1
 687.000976562 389 l 1
 329.912926248 389 l 1
 329.912926248 249 l 2
 329.912926248 211.265625 342.757880061 177.823242188 367.631479707 150.54296875 c 0
 392.176542846 123.623046875 424.325533117 109.73046875 459.895329697 109 c 2
 687.000976562 109 l 1
 687.000976562 15 l 1
 460.170787883 15 l 2
 409.922089967 15 366.688881928 30.5595703125 329.184472042 61.826171875 c 2
269.819114829 131.700195312 m 2
 250.583714131 165.911132812 240.888684159 204.741210938 240.888684159 248.999023438 c 2
 240.888684159 388.999023438 l 1
 94.001953125 388.999023438 l 1
 94.001953125 248.999023438 l 2
 94.001953125 211.145507812 108.149414062 177.642578125 134.429128587 150.39453125 c 0
 159.414375737 123.732421875 190.737906594 109.734375 226.556622199 108.999023438 c 0
 245.23195509 108.999023438 263.907287982 108.999023438 282.582620873 108.999023438 c 1
 269.819114829 131.700195312 l 2
EndSplineSet
Validated: 524289
EndChar

StartChar: G
Encoding: 71 71 40
Width: 847
GlyphClass: 2
Flags: W
HStem: 15 94.001<94.001 529.678> 762.001 95<329.913 593.001>
VStem: 0 94.001<109.001 857.001> 240.888 89.0252<638.001 762.001> 593.001 94<174.925 762.001>
LayerCount: 2
Fore
SplineSet
94.0009765625 857.000976562 m 1
 94.0009765625 109.000976562 l 1
 460.170773205 109.000976562 l 2
 495.64356945 109.000976562 527.039400956 123.1484375 552.573737699 150.396484375 c 0
 578.267578125 177.05859375 592.265625 210.484375 593.000976562 248.70703125 c 2
 593.000976562 762.000976562 l 1
 329.912893672 762.000976562 l 1
 329.912893672 638.000976562 l 1
 240.887724207 638.000976562 l 1
 240.887724207 857.000976562 l 1
 687.000976562 857.000976562 l 1
 687.000976562 249.000976562 l 2
 687.000976562 184.0859375 664.411132812 129.619140625 618.396484375 83.6044921875 c 0
 572.381835938 37.58984375 521.002198623 15 460.169858061 15 c 2
 0 15 l 1
 0 295.666992188 0.0009765625 576.333984375 0.0009765625 857.000976562 c 1
 94.0009765625 857.000976562 l 1
EndSplineSet
Validated: 524289
EndChar

StartChar: H
Encoding: 72 72 41
Width: 847
GlyphClass: 2
Flags: W
HStem: 15 94<0 687> 389 94<123.748 563.252> 762 95<0 687>
LayerCount: 2
Fore
SplineSet
0 762 m 1
 0 857 l 1
 687 857 l 1
 687 762 l 1
 0 762 l 1
563.251572327 483 m 1
 563.251572327 389 l 1
 123.748427673 389 l 1
 123.748427673 483 l 1
 563.251572327 483 l 1
687 15 m 1
 0 15 l 1
 0 109 l 1
 687 109 l 1
 687 15 l 1
EndSplineSet
Validated: 524289
EndChar

StartChar: I
Encoding: 73 73 42
Width: 847
GlyphClass: 2
Flags: W
HStem: 761.999 95.001<156.699 473.818 562.839 686.587>
VStem: -0.000976562 94.5537<637.999 697.601> 473.819 89.02<15 761.999>
LayerCount: 2
Fore
SplineSet
134.176518467 721.749023438 m 0
 111.720703125 698.973632812 98.166015625 669.90234375 94.552734375 637.999023438 c 1
 -0.0009765625 637.999023438 l 1
 3.2529296875 696.359375 25.765625 745.969726562 68.1904296875 788.395507812 c 0
 114.206054688 834.41015625 165.608957426 857 226.436844189 857 c 2
 686.586914062 857 l 1
 686.586914062 762 l 1
 562.838703926 762 l 1
 562.838703926 15 l 1
 473.818713188 15 l 1
 473.818713188 259 473.817798098 502.999023438 473.817798098 746.999023438 c 2
 473.817798098 761.999023438 l 1
 226.435929099 761.999023438 l 2
 191.077752473 761.999023438 159.740482913 748.291992188 134.176518467 721.749023438 c 0
EndSplineSet
Validated: 524289
EndChar

StartChar: J
Encoding: 74 74 43
Width: 847
GlyphClass: 2
Flags: W
HStem: 15 94<0.000976562 593.001> 513 95<0 530.62>
VStem: 593.001 93.999<109 557.081 672.176 857>
LayerCount: 2
Fore
SplineSet
593.000976562 109 m 1
 593.000976562 557.081054688 l 1
 570.473632812 543.974609375 l 2
 538.142780808 524.038085938 501.632216735 513.649414062 460.066400108 513 c 2
 0 513 l 1
 0 608 l 1
 460.169811321 608 l 2
 495.530955189 608 526.870043485 621.70703125 552.434576454 648.25 c 0
 578.376953125 674.442382812 592.26953125 708.749023438 593 746.706054688 c 2
 593 857 l 1
 687 857 l 1
 687 15 l 1
 0 15 l 1
 0 46.3330078125 0.0009765625 77.6669921875 0.0009765625 109 c 1
 593.000976562 109 l 1
EndSplineSet
Validated: 524289
EndChar

StartChar: K
Encoding: 75 75 44
Width: 847
GlyphClass: 2
Flags: W
HStem: 15 94<0 593> 762 95<0 593>
VStem: 593 94<109 762>
LayerCount: 2
Fore
SplineSet
687 15 m 1
 0 15 l 1
 0 109 l 1
 593 109 l 1
 593 762 l 1
 0 762 l 1
 0 857 l 1
 687 857 l 1
 687 15 l 1
EndSplineSet
Validated: 1
EndChar

StartChar: L
Encoding: 76 76 45
Width: 847
GlyphClass: 2
Flags: W
HStem: 15 94<157.097 593> 762 95<474.226 593>
VStem: 0 94<174.924 359> 593 94<109 762>
LayerCount: 2
Fore
SplineSet
94 359 m 1
 94 249 l 2
 94 211.146484375 108.147460938 177.643554688 134.427236881 150.395507812 c 0
 159.412484031 123.733398438 190.736014888 109.735351562 226.554730493 109 c 2
 593 109 l 1
 593 762 l 1
 474.226415094 762 l 1
 474.226415094 857 l 1
 687 857 l 1
 687 15 l 1
 226.830188679 15 l 2
 165.997856476 15 114.619140625 37.5888671875 68.6044921875 83.603515625 c 0
 22.58984375 129.618164062 0 184.084960938 0 249 c 2
 0 359 l 1
 94 359 l 1
EndSplineSet
Validated: 524289
EndChar

StartChar: M
Encoding: 77 77 46
Width: 847
GlyphClass: 2
Flags: W
HStem: 15 94<94 687> 762 95<157.097 563.252>
VStem: -0.000976562 94.001<109 697.075>
LayerCount: 2
Fore
SplineSet
563.251571812 762 m 1
 226.830141939 762 l 2
 191.468993212 762 160.12990061 748.29296875 134.565364128 721.75 c 0
 108.623046875 695.557617188 94.73046875 661.250976562 94 623.293945312 c 2
 94 109 l 1
 687 109 l 1
 687 15 l 1
 0 15 l 1
 0 217.666015625 -0.0009765625 420.333007812 -0.0009765625 622.999023438 c 0
 -0.0009765625 687.9140625 22.5888671875 742.380859375 68.603515625 788.395507812 c 0
 114.618164062 834.41015625 165.997801377 857 226.830141939 857 c 2
 563.251571812 857 l 1
 563.251571812 762 l 1
EndSplineSet
Validated: 524289
EndChar

StartChar: N
Encoding: 78 78 47
Width: 847
GlyphClass: 2
Flags: W
HStem: 15 94.001<157.096 358.024> 761.714 95.2871<156.629 212.773 446.113 529.902>
VStem: -0.00195312 94.001<174.924 697.076> 358.024 88.089<109.001 761.714> 593 94<15 697.076>
LayerCount: 2
Fore
SplineSet
68.6025390625 788.396484375 m 0
 111.028320312 830.822265625 158.08266819 853.334960938 212.772572419 856.587890625 c 1
 212.772572419 761.2578125 l 1
 183.135642842 758.078125 156.687989151 744.720703125 134.564389567 721.750976562 c 0
 108.622070312 695.55859375 94.7294921875 661.251953125 93.9990234375 623.294921875 c 2
 93.9990234375 249.000976562 l 2
 93.9990234375 211.147460938 108.146484375 177.64453125 134.426202864 150.396484375 c 0
 159.411456881 123.734375 190.734996345 109.736328125 226.553721794 109.000976562 c 2
 358.024184662 109.000976562 l 1
 358.024184662 857.000976562 l 1
 460.16886682 857.000976562 l 2
 521.00121574 857.000976562 572.380859375 834.411132812 618.395507812 788.396484375 c 0
 664.41015625 742.381835938 687 687.915039062 687 623 c 2
 687 15 l 1
 593 15 l 1
 593 623 l 2
 593 660.819335938 578.877929688 694.295898438 552.641394934 721.53125 c 0
 528.25830549 748.237304688 497.634850976 762.026367188 462.724863247 762.026367188 c 0
 457.145231948 762.026367188 451.650709015 761.828125 446.113174327 761.713867188 c 1
 446.113174327 15 l 1
 226.830095199 15 l 2
 165.997746279 15 114.6171875 37.5888671875 68.6025390625 83.603515625 c 0
 22.587890625 129.618164062 -0.001953125 184.084960938 -0.001953125 249 c 2
 -0.001953125 623 l 2
 -0.001953125 687.915039062 22.587890625 742.381835938 68.6025390625 788.396484375 c 0
EndSplineSet
Validated: 524289
EndChar

StartChar: O
Encoding: 79 79 48
Width: 847
GlyphClass: 2
Flags: W
HStem: 15 94<93.998 592.998> 762 95.001<157.096 529.902>
VStem: -0.00195312 94<109 697.076> 592.998 94.002<109 697.076>
LayerCount: 2
Fore
SplineSet
687 15 m 1
 0 15 l 1
 0 217.666992188 -0.001953125 420.333007812 -0.001953125 623 c 0
 -0.001953125 687.915039062 22.587890625 742.381835938 68.6025390625 788.396484375 c 0
 114.6171875 834.411132812 165.996831135 857.000976562 226.829180055 857.000976562 c 2
 460.16886682 857.000976562 l 2
 521.00121574 857.000976562 572.380859375 834.411132812 618.395507812 788.396484375 c 0
 664.41015625 742.381835938 687 687.915039062 687 623 c 2
 687 15 l 1
592.998046875 623 m 2
 592.998046875 660.819335938 578.875976562 694.295898438 552.639564646 721.53125 c 0
 528.256475202 748.237304688 497.633020688 762.026367188 462.72303296 762.026367188 c 0
 461.828937539 762.026367188 460.933011831 762.017578125 460.033425548 762 c 2
 226.828264912 762 l 2
 191.467111326 762 160.128014418 748.29296875 134.563474423 721.75 c 0
 108.62109375 695.557617188 94.728515625 661.250976562 93.998046875 623.293945312 c 2
 93.998046875 109 l 1
 592.998046875 109 l 1
 592.998046875 623 l 2
EndSplineSet
Validated: 524289
EndChar

StartChar: P
Encoding: 80 80 49
Width: 847
GlyphClass: 2
Flags: W
HStem: 15 94<157.097 593> 762 95<157.097 358.025>
VStem: -0.000976562 94.001<174.923 697.075> 358.025 88.0881<638 762> 593 94<109 857>
LayerCount: 2
Fore
SplineSet
446.113190937 638 m 1
 358.025128519 638 l 1
 358.025128519 762 l 1
 226.830141939 762 l 2
 191.468993212 762 160.12990061 748.29296875 134.565364128 721.75 c 0
 108.623046875 695.557617188 94.73046875 661.250976562 94 623.293945312 c 2
 94 249 l 2
 94 211.146484375 108.147460938 177.643554688 134.427177444 150.395507812 c 0
 159.412428028 123.733398438 190.735963188 109.735351562 226.554683715 109 c 2
 593 109 l 1
 593 857 l 1
 687 857 l 1
 687 15 l 1
 226.830141939 15 l 2
 165.997801377 15 114.618164062 37.587890625 68.603515625 83.6025390625 c 0
 22.5888671875 129.6171875 -0.0009765625 184.083984375 -0.0009765625 248.999023438 c 2
 -0.0009765625 622.999023438 l 2
 -0.0009765625 687.9140625 22.5888671875 742.380859375 68.603515625 788.395507812 c 0
 114.618164062 834.41015625 165.997801377 857 226.830141939 857 c 2
 446.113190937 857 l 1
 446.113190937 638 l 1
EndSplineSet
Validated: 524289
EndChar

StartChar: Q
Encoding: 81 81 50
Width: 847
GlyphClass: 2
Flags: W
HStem: 15 94<157.097 329.912> 762 95<94 593>
VStem: 0 94<174.924 762> 593 94<513 762>
LayerCount: 2
Fore
SplineSet
68.6044921875 83.603515625 m 0
 22.58984375 129.618164062 0 184.084960938 0 249 c 2
 0 857 l 1
 687 857 l 1
 687 513 l 1
 593 513 l 1
 593 762 l 1
 94 762 l 1
 94 249 l 2
 94 211.146484375 108.147460938 177.643554688 134.427236881 150.395507812 c 0
 159.412484031 123.733398438 190.736014888 109.735351562 226.554730493 109 c 2
 329.911949686 109 l 1
 329.911949686 15 l 1
 226.830188679 15 l 2
 165.997856476 15 114.619140625 37.5888671875 68.6044921875 83.603515625 c 0
EndSplineSet
Validated: 524289
EndChar

StartChar: R
Encoding: 82 82 51
Width: 847
GlyphClass: 2
Flags: W
HStem: 389 94.001<446.113 529.678> 762.001 95<0.000976562 593.001>
VStem: 358.025 88.0881<15 389> 593.001 94<548.925 762.001>
LayerCount: 2
Fore
SplineSet
460.170787883 483.000976562 m 2
 495.643579255 483.000976562 527.039406447 497.1484375 552.573739682 524.396484375 c 0
 578.267578125 551.05859375 592.265625 584.484375 593.000976562 622.70703125 c 2
 593.000976562 762.000976562 l 1
 0.0009765625 762.000976562 l 1
 0.0009765625 857.000976562 l 1
 687.000976562 857.000976562 l 1
 687.000976562 623.000976562 l 2
 687.000976562 558.0859375 664.411132812 503.619140625 618.396484375 457.604492188 c 0
 572.381835938 411.58984375 521.002204943 389 460.16987274 389 c 2
 446.113268966 389 l 1
 446.113268966 15 l 1
 358.025218652 15 l 1
 358.025218652 171 358.026133795 327.000976562 358.026133795 483.000976562 c 1
 460.170787883 483.000976562 l 2
EndSplineSet
Validated: 524289
EndChar

StartChar: S
Encoding: 83 83 52
Width: 847
GlyphClass: 2
Flags: W
HStem: 138.999 95<123.749 446.114> 388.999 94.001<157.098 593>
VStem: 0 94<548.924 857> 593 94<15 388.999 483 857>
LayerCount: 2
Fore
SplineSet
94 857 m 1
 94 623 l 2
 94 585.146484375 108.147460938 551.643554688 134.427236881 524.395507812 c 0
 159.412484031 497.733398438 190.736014888 483.735351562 226.554730493 483 c 2
 593 483 l 1
 593 857 l 1
 687 857 l 1
 687 15 l 1
 593 15 l 1
 593 134.666015625 593.000976562 254.333007812 593.000976562 373.999023438 c 2
 593.000976562 388.999023438 l 1
 226.831103823 388.999023438 l 2
 165.998771619 388.999023438 114.619140625 411.588867188 68.6044921875 457.603515625 c 0
 22.58984375 503.618164062 0 558.084960938 0 623 c 2
 0 857 l 1
 94 857 l 1
446.114122691 233.999023438 m 1
 446.114122691 138.999023438 l 1
 123.749342816 138.999023438 l 1
 123.749342816 233.999023438 l 1
 446.114122691 233.999023438 l 1
EndSplineSet
Validated: 524289
EndChar

StartChar: T
Encoding: 84 84 53
Width: 847
GlyphClass: 2
Flags: W
HStem: 15 94.001<156.697 298.581 387.595 529.243> 762.001 95<182.393 298.581>
VStem: 0.000976562 94.3496<174.399 234.001> 298.581 89.0148<109.001 762.001> 591.622 94.5537<174.399 234.001>
LayerCount: 2
Fore
SplineSet
68.1923828125 83.6044921875 m 0
 25.767578125 126.030273438 3.2548828125 175.640625 0.0009765625 234.000976562 c 1
 94.3505859375 234.000976562 l 1
 97.62109375 202.268554688 111.392578125 173.98828125 134.039474795 150.396484375 c 0
 159.021815998 123.734375 190.341703724 109.736328125 226.157168416 109.000976562 c 2
 298.580519875 109.000976562 l 1
 298.580519875 762.000976562 l 1
 182.392776977 762.000976562 l 1
 182.392776977 857.000976562 l 1
 387.595322901 857.000976562 l 1
 387.595322901 109.000976562 l 1
 459.744163248 109.000976562 l 2
 495.212828903 109.000976562 526.605004555 123.1484375 552.136367981 150.396484375 c 0
 574.376953125 173.581054688 587.984375 201.879882812 591.622070312 234.000976562 c 1
 686.17578125 234.000976562 l 1
 682.921875 175.640625 660.409179688 126.030273438 617.983398438 83.6044921875 c 0
 571.96875 37.58984375 520.568505218 15 459.743248211 15 c 2
 226.43076449 15 l 2
 165.606422521 15 114.208007812 37.58984375 68.1923828125 83.6044921875 c 0
EndSplineSet
Validated: 524289
EndChar

StartChar: U
Encoding: 85 85 54
Width: 847
GlyphClass: 2
Flags: W
HStem: 15 93.999<93.999 592.999> 761.999 95.001<390.753 592.999>
VStem: 0 93.999<108.999 856.999> 241.273 89.3134<637.999 702.332> 592.999 94.001<108.999 761.999>
LayerCount: 2
Fore
SplineSet
93.9990234375 856.999023438 m 1
 93.9990234375 108.999023438 l 1
 592.999023438 108.999023438 l 1
 592.999023438 761.999023438 l 1
 460.168881498 761.999023438 l 2
 424.807732772 761.999023438 393.46864017 748.291992188 367.904103687 721.749023438 c 0
 345.973602443 698.979492188 333.506601172 669.887695312 330.586377943 637.999023438 c 1
 241.272938244 637.999023438 l 1
 244.321281577 696.359375 265.418087001 745.969726562 305.175585585 788.395507812 c 0
 348.296236901 834.41015625 399.33745608 857 460.169796642 857 c 2
 687 857 l 1
 687 15 l 1
 0 15 l 1
 0 295.666015625 -0.0009765625 576.333007812 -0.0009765625 856.999023438 c 1
 93.9990234375 856.999023438 l 1
EndSplineSet
Validated: 524289
EndChar

StartChar: V
Encoding: 86 86 55
Width: 847
GlyphClass: 2
Flags: W
HStem: 513 95.001<157.099 298.989 388.013 529.903>
VStem: 0.000976562 94<672.925 857.001> 298.987 89.0252<15 513> 593.001 94<672.925 857.001>
LayerCount: 2
Fore
SplineSet
94.0009765625 857.000976562 m 1
 94.0009765625 747.000976562 l 2
 94.0009765625 708.6328125 108.0625 675.060546875 134.4272983 648.395507812 c 0
 158.799399322 621.737304688 189.39905169 607.974609375 224.27608466 607.974609375 c 0
 225.170179835 607.974609375 226.066105297 607.983398438 226.965691333 608.000976562 c 2
 460.170787883 608.000976562 l 2
 495.531931751 608.000976562 526.871020047 621.708007812 552.435553017 648.250976562 c 0
 578.377929688 674.443359375 592.270507812 708.75 593.000976562 746.70703125 c 2
 593.000976562 857.000976562 l 1
 687.000976562 857.000976562 l 1
 687.000976562 747.000976562 l 2
 687.000976562 682.0859375 664.411132812 627.619140625 618.396484375 581.604492188 c 0
 572.381835938 535.58984375 521.002204943 513 460.16987274 513 c 2
 388.012640035 513 l 1
 388.012640035 15 l 1
 298.987482803 15 l 1
 298.987482803 176 298.98931309 337 298.98931309 498 c 2
 298.98931309 513 l 1
 226.832080385 513 l 2
 165.999748182 513 114.620117188 535.58984375 68.60546875 581.604492188 c 0
 22.5908203125 627.619140625 0.0009765625 682.0859375 0.0009765625 747.000976562 c 2
 0.0009765625 857.000976562 l 1
 94.0009765625 857.000976562 l 1
EndSplineSet
Validated: 524289
EndChar

StartChar: W
Encoding: 87 87 56
Width: 847
GlyphClass: 2
Flags: W
HStem: 15 94<94 593> 762 95<94 593>
VStem: 0 94<109 762> 593 94<109 762>
LayerCount: 2
Fore
SplineSet
687 15 m 1
 0 15 l 1
 0 857 l 1
 687 857 l 1
 687 15 l 1
593 762 m 1
 94 762 l 1
 94 109 l 1
 593 109 l 1
 593 762 l 1
EndSplineSet
Validated: 1
EndChar

StartChar: X
Encoding: 88 88 57
Width: 847
GlyphClass: 2
Flags: W
HStem: 15 93.999<0 123.748 212.774 474.226 563.252 687> 761.999 95.001<273.921 474.226>
VStem: 123.748 89.0252<108.999 699.728> 474.226 89.0252<109 761.999>
LayerCount: 2
Fore
SplineSet
123.748427673 108.999023438 m 1
 123.748427673 622.999023438 l 2
 123.748427673 687.9140625 144.917526533 742.380859375 188.038171924 788.395507812 c 0
 231.131363011 834.380859375 282.47365738 857 343.968553459 857 c 2
 563.251572327 857 l 1
 563.251572327 109 l 1
 687 109 l 1
 687 15 l 1
 0 15 l 1
 0 108.999023438 l 1
 123.748427673 108.999023438 l 1
474.226415094 761.999023438 m 1
 343.968553459 761.999023438 l 2
 308.092183815 761.999023438 276.666156889 748.352539062 251.634237421 721.676757812 c 0
 225.97452953 695 212.773584906 661.401367188 212.773584906 622.999023438 c 2
 212.773584906 108.999023438 l 1
 474.226415094 108.999023438 l 1
 474.226415094 761.999023438 l 1
EndSplineSet
Validated: 524289
EndChar

StartChar: Y
Encoding: 89 89 58
Width: 847
GlyphClass: 2
Flags: W
HStem: 15 94.001<274.404 529.678> 762.001 95<0.000976562 123.749 212.775 358.026>
VStem: 123.749 89.0252<172.272 762.001> 358.026 88.0881<638.001 762.001> 593.001 94<174.925 857.001>
LayerCount: 2
Fore
SplineSet
188.039148487 83.6044921875 m 0
 144.918503096 129.619140625 123.749404235 184.0859375 123.749404235 249.000976562 c 2
 123.749404235 762.000976562 l 1
 0.0009765625 762.000976562 l 1
 0.0009765625 857.000976562 l 1
 446.11418411 857.000976562 l 1
 446.11418411 638.000976562 l 1
 358.026133795 638.000976562 l 1
 358.026133795 762.000976562 l 1
 212.774561468 762.000976562 l 1
 212.774561468 249.000976562 l 2
 212.774561468 211.147460938 226.032244988 177.64453125 251.566578223 150.396484375 c 0
 276.551825373 123.734375 307.87535623 109.736328125 343.694071836 109.000976562 c 2
 460.170787883 109.000976562 l 2
 495.643579255 109.000976562 527.039406447 123.1484375 552.573739682 150.396484375 c 0
 578.267578125 177.05859375 592.265625 210.484375 593.000976562 248.70703125 c 2
 593.000976562 857.000976562 l 1
 687.000976562 857.000976562 l 1
 687.000976562 249.000976562 l 2
 687.000976562 184.0859375 664.411132812 129.619140625 618.396484375 83.6044921875 c 0
 572.381835938 37.58984375 521.002204943 15 460.16987274 15 c 2
 343.968614878 15 l 2
 283.136282675 15 231.807715458 37.529296875 188.039148487 83.6044921875 c 0
EndSplineSet
Validated: 524289
EndChar

StartChar: Z
Encoding: 90 90 59
Width: 847
GlyphClass: 2
Flags: W
HStem: 15 94<156.699 592.587> 389 94<240.493 592.587> 762 95<473.819 592.587>
VStem: 0 94.3496<174.398 234> 592.587 94<109 389 483 762>
LayerCount: 2
Fore
SplineSet
686.586914062 15 m 1
 226.43689101 15 l 2
 165.60901262 15 114.20703125 37.5888671875 68.19140625 83.603515625 c 0
 25.7666015625 126.029296875 3.25390625 175.639648438 0 234 c 1
 94.349609375 234 l 1
 97.6201171875 202.267578125 111.391601562 173.987304688 134.039314452 150.395507812 c 0
 159.023108167 123.733398438 190.34481688 109.735351562 226.162363939 109 c 2
 592.586914062 109 l 1
 592.586914062 389 l 1
 240.492677087 389 l 1
 240.492677087 483 l 1
 592.586914062 483 l 1
 592.586914062 762 l 1
 473.818725957 762 l 1
 473.818725957 857 l 1
 686.586914062 857 l 1
 686.586914062 15 l 1
EndSplineSet
Validated: 524289
EndChar

StartChar: bracketleft
Encoding: 91 91 60
Width: 847
GlyphClass: 2
Flags: W
HStem: 264 95<264 389> 513 95<264 389>
VStem: 264 219<264 359 513 608> 389 94<15 264 608 857>
LayerCount: 2
Fore
SplineSet
264 608 m 1xe0
 389 608 l 1
 389 857 l 1
 483 857 l 1xd0
 483 513 l 1
 264 513 l 1
 264 608 l 1xe0
264 264 m 1xe0
 264 359 l 1
 483 359 l 1xe0
 483 15 l 1
 389 15 l 1
 389 264 l 1xd0
 264 264 l 1xe0
EndSplineSet
Validated: 1
EndChar

StartChar: backslash
Encoding: 92 92 61
Width: 847
GlyphClass: 2
Flags: W
HStem: 389 94.001<299.765 447.693>
VStem: 138.999 95<548.925 857.001> 513 95.0001<15 323.076>
LayerCount: 2
Fore
SplineSet
608 249 m 2
 608 15 l 1
 512.999941171 15 l 1
 512.999941171 93 512.999023438 171 512.999023438 249 c 0
 512.999022438 286.819131027 498.876979893 320.296349448 471.676829647 347.531188855 c 0
 445.059961131 374.851659956 411.820127016 389 373.999023438 389 c 0
 309.083749952 389 254.30926019 411.529353102 207.603545312 457.604521875 c 0
 161.588790936 503.619276251 138.999023438 558.0862589 138.999023438 623.000976562 c 2
 138.999023438 857.000976562 l 1
 233.999023438 857.000976562 l 1
 233.999023438 623.000976562 l 2
 233.999023438 585.147893867 248.146432422 551.644523828 275.394501563 524.396454687 c 0
 302.056269545 497.734686705 335.482339745 483.73638741 373.705399296 483.000976562 c 0
 373.80327401 483.000976562 373.901148724 483.000976563 373.999023438 483.000976562 c 0
 438.9137411 483.000976562 493.380723749 460.411209064 539.395478125 414.396454688 c 0
 585.410232501 368.381700311 608 313.914717663 608 249 c 2
EndSplineSet
Validated: 524289
EndChar

StartChar: bracketright
Encoding: 93 93 62
Width: 847
GlyphClass: 2
Flags: W
HStem: 264 95<359 483> 513 95<359 483>
VStem: 264 219<264 359 513 608> 264 95<15 264 608 857>
LayerCount: 2
Fore
SplineSet
264 857 m 1xd0
 359 857 l 1
 359 608 l 1xd0
 483 608 l 1
 483 513 l 1
 264 513 l 1xe0
 264 857 l 1xd0
264 359 m 1xe0
 483 359 l 1
 483 264 l 1xe0
 359 264 l 1
 359 15 l 1
 264 15 l 1xd0
 264 359 l 1xe0
EndSplineSet
Validated: 1
EndChar

StartChar: asciicircum
Encoding: 94 94 63
Width: 847
GlyphClass: 2
Flags: W
HStem: 576 94<139 326 421 608>
VStem: 326 95<670 857>
LayerCount: 2
Fore
SplineSet
139 670 m 1
 326 670 l 1
 326 857 l 1
 421 857 l 1
 421 670 l 1
 608 670 l 1
 608 576 l 1
 139 576 l 1
 139 670 l 1
EndSplineSet
Validated: 1
EndChar

StartChar: underscore
Encoding: 95 95 64
Width: 847
GlyphClass: 2
Flags: W
HStem: 15 94<15 732>
LayerCount: 2
Fore
SplineSet
732 109 m 1
 732 15 l 1
 15 15 l 1
 15 109 l 1
 732 109 l 1
EndSplineSet
Validated: 1
EndChar

StartChar: grave
Encoding: 96 96 65
Width: 847
GlyphClass: 2
Flags: W
HStem: 513.413 95.0728<421.267 483> 762 95<359 483>
VStem: 264 95<672.924 762>
LayerCount: 2
Fore
SplineSet
264 857 m 1
 483 857 l 1
 483 762 l 1
 359 762 l 1
 359 747 l 2
 359.00000063 708.716091225 372.646345713 675.181006271 399.322193625 648.46881377 c 0
 422.444333154 624.736551321 450.824667099 611.205080551 483 608.4855031 c 1
 483 513.412671208 l 1
 424.640062476 516.666299977 375.030172381 539.177894807 332.604521875 581.603545313 c 0
 286.589767499 627.618299689 264 682.085282337 264 747 c 2
 264 857 l 1
EndSplineSet
Validated: 524289
EndChar

StartChar: a
Encoding: 97 97 66
Width: 847
GlyphClass: 2
Flags: W
HStem: 139.001 95.001<94.001 529.889> 389 94.001<94.001 529.654>
VStem: 0.000976562 94<15.001 139.001 483.001 608.001> 592.239 94.3486<15.001 74.6032 548.399 608.001>
LayerCount: 2
Fore
SplineSet
94.0009765625 608.000976562 m 1
 94.0009765625 483.000976562 l 1
 460.150984964 483.000976562 l 2
 495.620802614 483.000976562 527.015722867 497.1484375 552.54857424 524.396484375 c 0
 574.790039062 547.581054688 588.396484375 575.879882812 592.03515625 608.000976562 c 1
 686.587890625 608.000976562 l 1
 683.334960938 549.640625 660.822265625 500.030273438 618.396484375 457.604492188 c 0
 572.381835938 411.58984375 520.978871727 389 460.150069873 389 c 2
 0 389 l 1
 0 462 0.0009765625 535.000976562 0.0009765625 608.000976562 c 1
 94.0009765625 608.000976562 l 1
460.150069873 234.001953125 m 2
 520.978871727 234.001953125 572.381835938 211.412109375 618.396484375 165.397460938 c 0
 660.822265625 122.971679688 683.334960938 73.361328125 686.587890625 15.0009765625 c 1
 592.239257812 15.0009765625 l 1
 588.971679688 46.701171875 575.225585938 74.955078125 552.617206018 98.5322265625 c 0
 528.235538324 125.23828125 497.613869429 139.02734375 462.705917264 139.02734375 c 0
 461.811873977 139.02734375 460.915085419 139.018554688 460.01646668 139.000976562 c 2
 94.0009765625 139.000976562 l 1
 94.0009765625 15.0009765625 l 1
 0.0009765625 15.0009765625 l 1
 0.0009765625 88.0009765625 0 161.001953125 0 234.001953125 c 1
 460.150069873 234.001953125 l 2
EndSplineSet
Validated: 524289
EndChar

StartChar: b
Encoding: 98 98 67
Width: 847
GlyphClass: 2
Flags: W
HStem: 15 94.001<156.695 529.241> 264 95<240.484 445.686> 513 95.001<156.932 529.477>
VStem: -0.000976562 94.3496<174.399 234.001 389 448.578> 591.62 94.5537<174.399 234.001 389 448.602>
LayerCount: 2
Fore
SplineSet
617.982421875 539.396484375 m 0
 660.408203125 496.970703125 682.920898438 447.360351562 686.174804688 389 c 1
 591.822265625 389 l 1
 588.548828125 420.60546875 574.794921875 448.581054688 552.136304519 471.60546875 c 0
 527.15121476 498.938476562 495.694067141 513 459.74317201 513 c 2
 226.430656115 513 l 2
 190.962900607 513 159.569805589 498.852539062 134.038438643 471.604492188 c 0
 111.901367188 448.5234375 98.2685546875 420.575195312 94.5810546875 389 c 1
 0 389 l 1
 3.25390625 447.360351562 25.7646484375 496.970703125 68.189453125 539.396484375 c 0
 114.205078125 585.411132812 165.605390722 608.000976562 226.429741078 608.000976562 c 2
 459.742256972 608.000976562 l 2
 520.567522366 608.000976562 571.967773438 585.411132812 617.982421875 539.396484375 c 0
445.686371098 359 m 1
 445.686371098 264 l 1
 240.483796878 264 l 1
 240.483796878 359 l 1
 445.686371098 359 l 1
68.1904296875 83.6044921875 m 0
 25.765625 126.030273438 3.2529296875 175.640625 -0.0009765625 234.000976562 c 1
 94.3486328125 234.000976562 l 1
 97.619140625 202.268554688 111.390625 173.98828125 134.037523606 150.396484375 c 0
 159.019868253 123.734375 190.339760298 109.736328125 226.155229929 109.000976562 c 2
 459.742256972 109.000976562 l 2
 495.210927518 109.000976562 526.603107499 123.1484375 552.134474445 150.396484375 c 0
 574.375 173.581054688 587.982421875 201.879882812 591.620117188 234.000976562 c 1
 686.173828125 234.000976562 l 1
 682.919921875 175.640625 660.407226562 126.030273438 617.981445312 83.6044921875 c 0
 571.966796875 37.58984375 520.566607329 15 459.741341935 15 c 2
 226.428826041 15 l 2
 165.604475685 15 114.206054688 37.58984375 68.1904296875 83.6044921875 c 0
EndSplineSet
Validated: 524289
EndChar

StartChar: c
Encoding: 99 99 68
Width: 847
GlyphClass: 2
Flags: W
HStem: 653 94<0 123.748>
VStem: 123.748 89.0252<154 653> 358.025 88.0881<139 483> 593 94<-124 468>
LayerCount: 2
Fore
SplineSet
0 653 m 1
 0 747 l 1
 212.773584906 747 l 1
 212.773584906 154 l 1
 123.748427673 154 l 1
 123.748427673 653 l 1
 0 653 l 1
687 468 m 1
 687 -124 l 1
 593 -124 l 1
 593 468 l 1
 687 468 l 1
446.113207547 483 m 1
 446.113207547 139 l 1
 358.025157233 139 l 1
 358.025157233 483 l 1
 446.113207547 483 l 1
EndSplineSet
Validated: 524289
EndChar

StartChar: d
Encoding: 100 100 69
Width: 847
GlyphClass: 2
Flags: W
HStem: 249.001 95<123.749 358.026 446.113 529.903> 498.001 95<0.000976562 593.292>
VStem: 358.025 88.0881<-124 249> 592.998 94.0029<408.925 498.001>
LayerCount: 2
Fore
SplineSet
123.749404235 344.000976562 m 1
 460.170787883 344.000976562 l 2
 495.531931751 344.000976562 526.871020047 357.708007812 552.435553017 384.250976562 c 0
 578.377929688 410.443359375 592.267578125 444.75 592.998046875 482.70703125 c 2
 593.291992188 498.000976562 l 1
 0.0009765625 498.000976562 l 1
 0.0009765625 593.000976562 l 1
 687.000976562 593.000976562 l 1
 687.000976562 483.000976562 l 2
 687.000976562 418.0859375 664.411132812 363.619140625 618.396484375 317.604492188 c 0
 572.381835938 271.58984375 521.002204943 249 460.16987274 249 c 2
 446.113268966 249 l 1
 446.113268966 -124 l 1
 358.025218652 -124 l 1
 358.025218652 -4.666015625 358.026133795 114.666992188 358.026133795 234.000976562 c 2
 358.026133795 249.000976562 l 1
 123.749404235 249.000976562 l 1
 123.749404235 344.000976562 l 1
EndSplineSet
Validated: 524289
EndChar

StartChar: e
Encoding: 101 101 70
Width: 847
GlyphClass: 2
Flags: W
HStem: 0 94<94 178.964> 498.001 94.999<329.913 474.227 563.252 687>
VStem: 0 94<94 593> 240.887 89.0261<158.037 498.001> 474.226 89.0252<-124 498>
LayerCount: 2
Fore
SplineSet
264.68601366 68.6044921875 m 0
 221.565368268 22.58984375 170.524156103 0 109 0 c 2
 0 0 l 1
 0 593 l 1
 94 593 l 1
 94 94 l 1
 109 94 l 2
 145.164615271 94 176.560442463 108.147460938 202.094775698 135.395507812 c 0
 227.080022848 162.057617188 240.197689416 195.483398438 240.886792453 233.706054688 c 2
 240.886792453 593 l 1
 687 593 l 1
 687 498 l 1
 563.251572327 498 l 1
 563.251572327 -124 l 1
 474.226415094 -124 l 1
 474.226415094 78.333984375 474.227330238 280.666992188 474.227330238 483.000976562 c 2
 474.227330238 498.000976562 l 1
 329.912864829 498.000976562 l 1
 329.912864829 234.000976562 l 2
 329.912864829 169.145507812 308.413399175 114.63671875 264.68601366 68.6044921875 c 0
EndSplineSet
Validated: 524289
EndChar

StartChar: f
Encoding: 102 102 71
Width: 847
GlyphClass: 2
Flags: W
HStem: 30 94<391.945 687.001> 30.0225 78.9766<157.854 223.55> 263.999 110.001<94.002 240.888> 279 95<329.913 687.001> 653 94<123.749 240.888>
VStem: 0.000976562 94.001<174.827 263.999> 240.888 89.0252<187.129 263.999 374 653>
LayerCount: 2
Fore
SplineSet
329.184472042 76.826171875 m 2x9e
 322.193691038 82.654296875 l 1
 223.550375884 30.0224609375 l 1
 164.161224941 30.822265625 113.791015625 53.41796875 68.60546875 98.603515625 c 0
 22.5908203125 144.618164062 0.0009765625 199.084960938 0.0009765625 264 c 2
 0.0009765625 374 l 1x5e
 240.887769015 374 l 1x2e
 240.887769015 653 l 1
 123.749404235 653 l 1
 123.749404235 747 l 1
 329.912926248 747 l 1
 329.912926248 374 l 1
 687.000976562 374 l 1
 687.000976562 279 l 1
 329.912926248 279 l 1
 329.912926248 264 l 2
 329.912926248 226.265625 342.757880061 192.823242188 367.631479707 165.54296875 c 0
 392.176542846 138.623046875 424.325533117 124.73046875 459.895329697 124 c 2
 687.000976562 124 l 1
 687.000976562 30 l 1
 460.170787883 30 l 2
 409.922089967 30 366.688881928 45.5595703125 329.184472042 76.826171875 c 2x9e
269.819114829 131.700195312 m 2
 250.583714131 165.911132812 240.888684159 204.741210938 240.888684159 248.999023438 c 2
 240.888684159 263.999023438 l 1
 94.001953125 263.999023438 l 1x6e
 94.001953125 248.999023438 l 2
 94.001953125 211.145507812 108.149414062 177.642578125 134.429128587 150.39453125 c 0
 159.414375737 123.732421875 190.737906594 109.734375 226.556622199 108.999023438 c 0
 245.23195509 108.999023438 263.907287982 108.999023438 282.582620873 108.999023438 c 1
 269.819114829 131.700195312 l 2
EndSplineSet
Validated: 524289
EndChar

StartChar: g
Encoding: 103 103 72
Width: 847
GlyphClass: 2
Flags: W
HStem: 15 94.001<94.001 529.678> 513.001 95<329.913 593.001>
VStem: 0 94.001<109.001 608.001> 240.888 89.0252<389.001 513.001> 593.001 94<174.925 513.001>
LayerCount: 2
Fore
SplineSet
94.0009765625 608.000976562 m 1
 94.0009765625 109.000976562 l 1
 460.170773205 109.000976562 l 2
 495.64356945 109.000976562 527.039400956 123.1484375 552.573737699 150.396484375 c 0
 578.267578125 177.05859375 592.265625 210.484375 593.000976562 248.70703125 c 2
 593.000976562 513.000976562 l 1
 329.912893672 513.000976562 l 1
 329.912893672 389.000976562 l 1
 240.887724207 389.000976562 l 1
 240.887724207 608.000976562 l 1
 687.000976562 608.000976562 l 1
 687.000976562 249.000976562 l 2
 687.000976562 184.0859375 664.411132812 129.619140625 618.396484375 83.6044921875 c 0
 572.381835938 37.58984375 521.002198623 15 460.169858061 15 c 2
 0 15 l 1
 0 212.666992188 0.0009765625 410.333984375 0.0009765625 608.000976562 c 1
 94.0009765625 608.000976562 l 1
EndSplineSet
Validated: 524289
EndChar

StartChar: h
Encoding: 104 104 73
Width: 847
GlyphClass: 2
Flags: W
HStem: 15 94<0 687> 264 95<123.748 563.252> 513 95<0 687>
LayerCount: 2
Fore
SplineSet
0 513 m 1
 0 608 l 1
 687 608 l 1
 687 513 l 1
 0 513 l 1
563.251572327 359 m 1
 563.251572327 264 l 1
 123.748427673 264 l 1
 123.748427673 359 l 1
 563.251572327 359 l 1
687 15 m 1
 0 15 l 1
 0 109 l 1
 687 109 l 1
 687 15 l 1
EndSplineSet
Validated: 524289
EndChar

StartChar: i
Encoding: 105 105 74
Width: 847
GlyphClass: 2
Flags: W
HStem: 497.999 95.001<156.933 473.818 562.839 686.587>
VStem: -0.000976562 94.5811<373.999 433.577> 473.819 89.02<-124 497.999>
LayerCount: 2
Fore
SplineSet
134.038339822 456.603515625 m 0
 111.900390625 433.522460938 98.267578125 405.57421875 94.580078125 373.999023438 c 1
 -0.0009765625 373.999023438 l 1
 3.2529296875 432.359375 25.765625 481.969726562 68.1904296875 524.395507812 c 0
 114.206054688 570.41015625 165.608957426 593 226.436844189 593 c 2
 686.586914062 593 l 1
 686.586914062 498 l 1
 562.838703926 498 l 1
 562.838703926 -124 l 1
 473.818713188 -124 l 1
 473.818713188 78.3330078125 473.817798098 280.666015625 473.817798098 482.999023438 c 2
 473.817798098 497.999023438 l 1
 226.435929099 497.999023438 l 2
 190.966111449 497.999023438 159.571191195 483.8515625 134.038339822 456.603515625 c 0
EndSplineSet
Validated: 524289
EndChar

StartChar: j
Encoding: 106 106 75
Width: 847
GlyphClass: 2
Flags: W
HStem: 15 94<0.000976562 593.001> 389 94<0 528.988>
VStem: 593.001 93.999<109 432.081 548.824 608>
LayerCount: 2
Fore
SplineSet
593.000976562 109 m 1
 593.000976562 432.081054688 l 1
 570.473632812 418.974609375 l 2
 538.175725973 399.05859375 501.715494792 389 460.169811321 389 c 2
 0 389 l 1
 0 483 l 1
 460.169811321 483 l 2
 495.642602693 483 527.038429884 497.147460938 552.572763119 524.395507812 c 0
 574.7890625 547.580078125 588.395507812 575.87890625 592.034179688 608 c 1
 687 608 l 1
 687 15 l 1
 0 15 l 1
 0 46.3330078125 0.0009765625 77.6669921875 0.0009765625 109 c 1
 593.000976562 109 l 1
EndSplineSet
Validated: 524289
EndChar

StartChar: k
Encoding: 107 107 76
Width: 847
GlyphClass: 2
Flags: W
HStem: 15 94<0 593> 513 95<0 593>
VStem: 593 94<109 513>
LayerCount: 2
Fore
SplineSet
687 15 m 1
 0 15 l 1
 0 109 l 1
 593 109 l 1
 593 513 l 1
 0 513 l 1
 0 608 l 1
 687 608 l 1
 687 15 l 1
EndSplineSet
Validated: 1
EndChar

StartChar: l
Encoding: 108 108 77
Width: 847
GlyphClass: 2
Flags: W
HStem: 30 94<156.699 473.819 562.839 686.587> 653 94<357.624 473.819>
VStem: 0 94.3496<189.398 249> 473.819 89.02<124 653>
LayerCount: 2
Fore
SplineSet
686.586914062 30 m 1
 226.43689101 30 l 2
 165.60901262 30 114.20703125 52.5888671875 68.19140625 98.603515625 c 0
 25.7666015625 141.029296875 3.25390625 190.639648438 0 249 c 1
 94.349609375 249 l 1
 97.6201171875 217.267578125 111.391601562 188.987304688 134.039314452 165.395507812 c 0
 159.023108167 138.733398438 190.34481688 124.735351562 226.162363939 124 c 2
 473.818725957 124 l 1
 473.818725957 653 l 1
 357.624227725 653 l 1
 357.624227725 747 l 1
 562.838704442 747 l 1
 562.838704442 124 l 1
 686.586914062 124 l 1
 686.586914062 30 l 1
EndSplineSet
Validated: 524289
EndChar

StartChar: m
Encoding: 109 109 78
Width: 847
GlyphClass: 2
Flags: W
HStem: 15 94<94 687> 513 95<157.323 563.252>
VStem: -0.000976562 94.001<109 447.667>
LayerCount: 2
Fore
SplineSet
563.251571812 513 m 1
 226.830141939 513 l 2
 191.357345693 513 159.961514188 498.852539062 134.427177444 471.604492188 c 0
 108.79296875 445.001953125 94.73828125 411.93359375 94 374.299804688 c 2
 94 109 l 1
 687 109 l 1
 687 15 l 1
 0 15 l 1
 0 134.666015625 -0.0009765625 254.333007812 -0.0009765625 373.999023438 c 0
 -0.0009765625 438.9140625 22.5888671875 493.380859375 68.603515625 539.395507812 c 0
 114.618164062 585.41015625 165.997801377 608 226.830141939 608 c 2
 563.251571812 608 l 1
 563.251571812 513 l 1
EndSplineSet
Validated: 524289
EndChar

StartChar: n
Encoding: 110 110 79
Width: 847
GlyphClass: 2
Flags: W
HStem: 15 94.001<157.096 358.024> 513 95.001<158.958 212.773 446.113 529.902>
VStem: -0.00195312 94.001<174.924 447.667> 358.024 88.089<109.001 513> 593 94<15 447.635>
LayerCount: 2
Fore
SplineSet
68.6025390625 539.396484375 m 0
 111.028320312 581.822265625 158.08266819 604.334960938 212.772572419 607.587890625 c 1
 212.772572419 512.239257812 l 1
 183.035892176 508.967773438 156.534245005 495.197265625 134.426202864 471.60546875 c 0
 108.791992188 445.002929688 94.7373046875 411.934570312 93.9990234375 374.30078125 c 2
 93.9990234375 249.000976562 l 2
 93.9990234375 211.147460938 108.146484375 177.64453125 134.426202864 150.396484375 c 0
 159.411456881 123.734375 190.734996345 109.736328125 226.553721794 109.000976562 c 2
 358.024184662 109.000976562 l 1
 358.024184662 608.000976562 l 1
 460.16886682 608.000976562 l 2
 521.00121574 608.000976562 572.380859375 585.411132812 618.395507812 539.396484375 c 0
 664.41015625 493.381835938 687 438.915039062 687 374 c 2
 687 15 l 1
 593 15 l 1
 593 374 l 2
 593 411.787109375 578.876953125 445.000976562 552.573674298 471.60546875 c 0
 527.584759707 498.938476562 496.124863827 513 460.169781963 513 c 2
 446.113174327 513 l 1
 446.113174327 15 l 1
 226.830095199 15 l 2
 165.997746279 15 114.6171875 37.5888671875 68.6025390625 83.603515625 c 0
 22.587890625 129.618164062 -0.001953125 184.084960938 -0.001953125 249 c 2
 -0.001953125 374 l 2
 -0.001953125 438.915039062 22.587890625 493.381835938 68.6025390625 539.396484375 c 0
EndSplineSet
Validated: 524289
EndChar

StartChar: o
Encoding: 111 111 80
Width: 847
GlyphClass: 2
Flags: W
HStem: 15 94<93.998 592.998> 513 95.001<157.321 529.902>
VStem: -0.00195312 94<109 447.667> 592.998 94.002<109 447.635>
LayerCount: 2
Fore
SplineSet
687 15 m 1
 0 15 l 1
 0 134.666992188 -0.001953125 254.333007812 -0.001953125 374 c 0
 -0.001953125 438.915039062 22.587890625 493.381835938 68.6025390625 539.396484375 c 0
 114.6171875 585.411132812 165.996831135 608.000976562 226.829180055 608.000976562 c 2
 460.16886682 608.000976562 l 2
 521.00121574 608.000976562 572.380859375 585.411132812 618.395507812 539.396484375 c 0
 664.41015625 493.381835938 687 438.915039062 687 374 c 2
 687 15 l 1
592.998046875 374 m 2
 592.998046875 411.787109375 578.875 445.000976562 552.571844011 471.60546875 c 0
 527.58292942 498.938476562 496.12303354 513 460.167951676 513 c 2
 226.828264912 513 l 2
 191.355463792 513 159.959627973 498.852539062 134.425287721 471.604492188 c 0
 108.791015625 445.001953125 94.736328125 411.93359375 93.998046875 374.299804688 c 2
 93.998046875 109 l 1
 592.998046875 109 l 1
 592.998046875 374 l 2
EndSplineSet
Validated: 524289
EndChar

StartChar: p
Encoding: 112 112 81
Width: 847
GlyphClass: 2
Flags: W
HStem: 15 94<157.097 593> 513 95<157.323 358.025>
VStem: -0.000976562 94.001<174.923 447.667> 358.025 88.0881<389 513> 593 94<109 608>
LayerCount: 2
Fore
SplineSet
446.113190937 389 m 1
 358.025128519 389 l 1
 358.025128519 513 l 1
 226.830141939 513 l 2
 191.357345693 513 159.961514188 498.852539062 134.427177444 471.604492188 c 0
 108.79296875 445.001953125 94.73828125 411.93359375 94 374.299804688 c 2
 94 249 l 2
 94 211.146484375 108.147460938 177.643554688 134.427177444 150.395507812 c 0
 159.412428028 123.733398438 190.735963188 109.735351562 226.554683715 109 c 2
 593 109 l 1
 593 608 l 1
 687 608 l 1
 687 15 l 1
 226.830141939 15 l 2
 165.997801377 15 114.618164062 37.587890625 68.603515625 83.6025390625 c 0
 22.5888671875 129.6171875 -0.0009765625 184.083984375 -0.0009765625 248.999023438 c 2
 -0.0009765625 373.999023438 l 2
 -0.0009765625 438.9140625 22.5888671875 493.380859375 68.603515625 539.395507812 c 0
 114.618164062 585.41015625 165.997801377 608 226.830141939 608 c 2
 446.113190937 608 l 1
 446.113190937 389 l 1
EndSplineSet
Validated: 524289
EndChar

StartChar: q
Encoding: 113 113 82
Width: 847
GlyphClass: 2
Flags: W
HStem: 15 94<157.097 329.912> 513 95<94 593>
VStem: 0 94<174.924 513> 593 94<389 513>
LayerCount: 2
Fore
SplineSet
68.6044921875 83.603515625 m 0
 22.58984375 129.618164062 0 184.084960938 0 249 c 2
 0 608 l 1
 687 608 l 1
 687 389 l 1
 593 389 l 1
 593 513 l 1
 94 513 l 1
 94 249 l 2
 94 211.146484375 108.147460938 177.643554688 134.427236881 150.395507812 c 0
 159.412484031 123.733398438 190.736014888 109.735351562 226.554730493 109 c 2
 329.911949686 109 l 1
 329.911949686 15 l 1
 226.830188679 15 l 2
 165.997856476 15 114.619140625 37.5888671875 68.6044921875 83.603515625 c 0
EndSplineSet
Validated: 524289
EndChar

StartChar: r
Encoding: 114 114 83
Width: 847
GlyphClass: 2
Flags: W
HStem: 249 95.001<446.113 529.903> 498.001 95<0.000976562 593.292>
VStem: 358.025 88.0881<-124 249> 592.998 94.0029<408.925 498.001>
LayerCount: 2
Fore
SplineSet
460.170787883 344.000976562 m 2
 495.531931751 344.000976562 526.871020047 357.708007812 552.435553017 384.250976562 c 0
 578.377929688 410.443359375 592.267578125 444.75 592.998046875 482.70703125 c 2
 593.291992188 498.000976562 l 1
 0.0009765625 498.000976562 l 1
 0.0009765625 593.000976562 l 1
 687.000976562 593.000976562 l 1
 687.000976562 483.000976562 l 2
 687.000976562 418.0859375 664.411132812 363.619140625 618.396484375 317.604492188 c 0
 572.381835938 271.58984375 521.002204943 249 460.16987274 249 c 2
 446.113268966 249 l 1
 446.113268966 -124 l 1
 358.025218652 -124 l 1
 358.025218652 32 358.026133795 188.000976562 358.026133795 344.000976562 c 1
 460.170787883 344.000976562 l 2
EndSplineSet
Validated: 524289
EndChar

StartChar: s
Encoding: 115 115 84
Width: 847
GlyphClass: 2
Flags: W
HStem: 14.999 94<123.749 446.114> 263.999 95.001<157.098 593>
VStem: 0 94<423.924 608> 593 94<15 263.999 359 608>
LayerCount: 2
Fore
SplineSet
94 608 m 1
 94 498 l 2
 94 460.146484375 108.147460938 426.643554688 134.427236881 399.395507812 c 0
 159.47013807 372.670898438 190.92087387 359 226.830188679 359 c 2
 593 359 l 1
 593 608 l 1
 687 608 l 1
 687 15 l 1
 593 15 l 1
 593 93 593.000976562 170.999023438 593.000976562 248.999023438 c 2
 593.000976562 263.999023438 l 1
 226.831103823 263.999023438 l 2
 165.998771619 263.999023438 114.619140625 286.588867188 68.6044921875 332.603515625 c 0
 22.58984375 378.618164062 0 433.084960938 0 498 c 2
 0 608 l 1
 94 608 l 1
446.114122691 108.999023438 m 1
 446.114122691 14.9990234375 l 1
 123.749342816 14.9990234375 l 1
 123.749342816 108.999023438 l 1
 446.114122691 108.999023438 l 1
EndSplineSet
Validated: 524289
EndChar

StartChar: t
Encoding: 116 116 85
Width: 847
GlyphClass: 2
Flags: W
HStem: 30 94.001<156.697 298.581 387.595 529.243> 653.001 94<182.393 298.581>
VStem: 0.000976562 94.3496<189.399 249.001> 298.581 89.0148<124.001 653.001> 591.622 94.5537<189.399 249.001>
LayerCount: 2
Fore
SplineSet
68.1923828125 98.6044921875 m 0
 25.767578125 141.030273438 3.2548828125 190.640625 0.0009765625 249.000976562 c 1
 94.3505859375 249.000976562 l 1
 97.62109375 217.268554688 111.392578125 188.98828125 134.039474795 165.396484375 c 0
 159.021815998 138.734375 190.341703724 124.736328125 226.157168416 124.000976562 c 2
 298.580519875 124.000976562 l 1
 298.580519875 653.000976562 l 1
 182.392776977 653.000976562 l 1
 182.392776977 747.000976562 l 1
 387.595322901 747.000976562 l 1
 387.595322901 124.000976562 l 1
 459.744163248 124.000976562 l 2
 495.212828903 124.000976562 526.605004555 138.1484375 552.136367981 165.396484375 c 0
 574.376953125 188.581054688 587.984375 216.879882812 591.622070312 249.000976562 c 1
 686.17578125 249.000976562 l 1
 682.921875 190.640625 660.409179688 141.030273438 617.983398438 98.6044921875 c 0
 571.96875 52.58984375 520.568505218 30 459.743248211 30 c 2
 226.43076449 30 l 2
 165.606422521 30 114.208007812 52.58984375 68.1923828125 98.6044921875 c 0
EndSplineSet
Validated: 524289
EndChar

StartChar: u
Encoding: 117 117 86
Width: 847
GlyphClass: 2
Flags: W
HStem: 15 93.999<93.999 592.999> 512.999 95.001<390.753 592.999>
VStem: 0 93.999<108.999 607.999> 241.273 89.3372<388.999 451.046> 592.999 94.001<108.999 512.999>
LayerCount: 2
Fore
SplineSet
93.9990234375 607.999023438 m 1
 93.9990234375 108.999023438 l 1
 592.999023438 108.999023438 l 1
 592.999023438 512.999023438 l 1
 460.168881498 512.999023438 l 2
 424.696085253 512.999023438 393.300253747 498.8515625 367.765917004 471.603515625 c 0
 346.144734296 448.53125 333.598115532 420.5625 330.610171676 388.999023438 c 1
 241.272938244 388.999023438 l 1
 244.321281577 447.359375 265.418087001 496.969726562 305.175585585 539.395507812 c 0
 348.296236901 585.41015625 399.33745608 608 460.169796642 608 c 2
 687 608 l 1
 687 15 l 1
 0 15 l 1
 0 212.666015625 -0.0009765625 410.333007812 -0.0009765625 607.999023438 c 1
 93.9990234375 607.999023438 l 1
EndSplineSet
Validated: 524289
EndChar

StartChar: v
Encoding: 118 118 87
Width: 847
GlyphClass: 2
Flags: W
HStem: 249 95.001<157.099 298.989 388.013 529.903>
VStem: 0.000976562 94<408.925 593.001> 298.987 89.0252<-124 249> 593.001 94<408.925 593.001>
LayerCount: 2
Fore
SplineSet
94.0009765625 593.000976562 m 1
 94.0009765625 483.000976562 l 2
 94.0009765625 445.147460938 108.1484375 411.64453125 134.428213443 384.396484375 c 0
 159.471114632 357.671875 190.921850432 344.000976562 226.831165242 344.000976562 c 2
 460.170787883 344.000976562 l 2
 495.531931751 344.000976562 526.871020047 357.708007812 552.435553017 384.250976562 c 0
 578.377929688 410.443359375 592.270507812 444.75 593.000976562 482.70703125 c 2
 593.000976562 593.000976562 l 1
 687.000976562 593.000976562 l 1
 687.000976562 483.000976562 l 2
 687.000976562 418.0859375 664.411132812 363.619140625 618.396484375 317.604492188 c 0
 572.381835938 271.58984375 521.002204943 249 460.16987274 249 c 2
 388.012640035 249 l 1
 388.012640035 -124 l 1
 298.987482803 -124 l 1
 298.987482803 -4.6669921875 298.98931309 114.666992188 298.98931309 234 c 2
 298.98931309 249 l 1
 226.832080385 249 l 2
 165.999748182 249 114.620117188 271.58984375 68.60546875 317.604492188 c 0
 22.5908203125 363.619140625 0.0009765625 418.0859375 0.0009765625 483.000976562 c 2
 0.0009765625 593.000976562 l 1
 94.0009765625 593.000976562 l 1
EndSplineSet
Validated: 524289
EndChar

StartChar: w
Encoding: 119 119 88
Width: 847
GlyphClass: 2
Flags: W
HStem: 15 94<94 593> 513 95<94 593>
VStem: 0 94<109 513> 593 94<109 513>
LayerCount: 2
Fore
SplineSet
687 15 m 1
 0 15 l 1
 0 608 l 1
 687 608 l 1
 687 15 l 1
593 513 m 1
 94 513 l 1
 94 109 l 1
 593 109 l 1
 593 513 l 1
EndSplineSet
Validated: 1
EndChar

StartChar: x
Encoding: 120 120 89
Width: 847
GlyphClass: 2
Flags: W
HStem: 15 93.999<0 123.748 212.774 474.226 563.252 687> 512.999 95.001<274.141 474.226>
VStem: 123.748 89.0252<108.999 448.075> 474.226 89.0252<109 512.999>
LayerCount: 2
Fore
SplineSet
123.748427673 108.999023438 m 1
 123.748427673 373.999023438 l 2
 123.748427673 438.9140625 144.917526533 493.380859375 188.038171924 539.395507812 c 0
 231.131363011 585.380859375 282.47365738 608 343.968553459 608 c 2
 563.251572327 608 l 1
 563.251572327 109 l 1
 687 109 l 1
 687 15 l 1
 0 15 l 1
 0 108.999023438 l 1
 123.748427673 108.999023438 l 1
474.226415094 512.999023438 m 1
 343.968553459 512.999023438 l 2
 308.013481476 512.999023438 276.553594241 498.9375 251.564686517 471.604492188 c 0
 226.008389839 445 212.773584906 411.786132812 212.773584906 373.999023438 c 2
 212.773584906 108.999023438 l 1
 474.226415094 108.999023438 l 1
 474.226415094 512.999023438 l 1
EndSplineSet
Validated: 524289
EndChar

StartChar: y
Encoding: 121 121 90
Width: 847
GlyphClass: 2
Flags: W
HStem: 15 94.001<274.404 529.678> 513.001 95<0.000976562 123.749 212.775 358.026>
VStem: 123.749 89.0252<172.272 513.001> 358.026 88.0881<389.001 513.001> 593.001 94<174.925 608.001>
LayerCount: 2
Fore
SplineSet
188.039148487 83.6044921875 m 0
 144.918503096 129.619140625 123.749404235 184.0859375 123.749404235 249.000976562 c 2
 123.749404235 513.000976562 l 1
 0.0009765625 513.000976562 l 1
 0.0009765625 608.000976562 l 1
 446.11418411 608.000976562 l 1
 446.11418411 389.000976562 l 1
 358.026133795 389.000976562 l 1
 358.026133795 513.000976562 l 1
 212.774561468 513.000976562 l 1
 212.774561468 249.000976562 l 2
 212.774561468 211.147460938 226.032244988 177.64453125 251.566578223 150.396484375 c 0
 276.551825373 123.734375 307.87535623 109.736328125 343.694071836 109.000976562 c 2
 460.170787883 109.000976562 l 2
 495.643579255 109.000976562 527.039406447 123.1484375 552.573739682 150.396484375 c 0
 578.267578125 177.05859375 592.265625 210.484375 593.000976562 248.70703125 c 2
 593.000976562 608.000976562 l 1
 687.000976562 608.000976562 l 1
 687.000976562 249.000976562 l 2
 687.000976562 184.0859375 664.411132812 129.619140625 618.396484375 83.6044921875 c 0
 572.381835938 37.58984375 521.002204943 15 460.16987274 15 c 2
 343.968614878 15 l 2
 283.136282675 15 231.807715458 37.529296875 188.039148487 83.6044921875 c 0
EndSplineSet
Validated: 524289
EndChar

StartChar: z
Encoding: 122 122 91
Width: 847
GlyphClass: 2
Flags: W
HStem: 30 94<156.699 592.587> 279 95<240.493 592.587> 653 94<473.819 592.587>
VStem: 0 94.3496<189.398 249> 592.587 94<124 279 374 653>
LayerCount: 2
Fore
SplineSet
686.586914062 30 m 1
 226.43689101 30 l 2
 165.60901262 30 114.20703125 52.5888671875 68.19140625 98.603515625 c 0
 25.7666015625 141.029296875 3.25390625 190.639648438 0 249 c 1
 94.349609375 249 l 1
 97.6201171875 217.267578125 111.391601562 188.987304688 134.039314452 165.395507812 c 0
 159.023108167 138.733398438 190.34481688 124.735351562 226.162363939 124 c 2
 592.586914062 124 l 1
 592.586914062 279 l 1
 240.492677087 279 l 1
 240.492677087 374 l 1
 592.586914062 374 l 1
 592.586914062 653 l 1
 473.818725957 653 l 1
 473.818725957 747 l 1
 686.586914062 747 l 1
 686.586914062 30 l 1
EndSplineSet
Validated: 524289
EndChar

StartChar: braceleft
Encoding: 123 123 92
Width: 847
GlyphClass: 2
Flags: W
HStem: 264 95<264 389> 513 95<264 389>
VStem: 264 219<264 359 513 608> 389 94<15 264 359 513 608 857>
LayerCount: 2
Fore
SplineSet
264 264 m 1xe0
 264 359 l 1xe0
 389 359 l 1
 389 513 l 1xd0
 264 513 l 1
 264 608 l 1xe0
 389 608 l 1
 389 857 l 1
 483 857 l 1
 483 15 l 1
 389 15 l 1
 389 264 l 1xd0
 264 264 l 1xe0
EndSplineSet
Validated: 1
EndChar

StartChar: bar
Encoding: 124 124 93
Width: 847
GlyphClass: 2
Flags: W
VStem: 139 95<15 323.076> 326 95<479.287 857.001> 513 95<15 323.076>
CounterMasks: 1 e0
LayerCount: 2
Fore
SplineSet
326 857.000976562 m 1
 421 857.000976562 l 1
 421 479.286517919 l 1
 432.355280934 476.44763271 l 2
 472.324246049 466.455162729 507.790414408 446.001518404 539.395478125 414.396454688 c 0
 585.410232501 368.381700311 608 313.914717663 608 249 c 2
 608 15 l 1
 513 15 l 1
 513 249 l 2
 512.999999 286.819131027 498.877956455 320.296349448 471.67780621 347.531188855 c 0
 445.060937694 374.851659956 411.821103579 389 374 389 c 0
 335.632184214 389 302.059913785 374.938292352 275.394380371 347.605234237 c 0
 248.061576247 320.939764385 234 287.367630877 234 249 c 2
 234 15 l 1
 139 15 l 1
 139 249 l 2
 139 313.914717663 161.589767499 368.381700311 207.604521875 414.396454688 c 0
 239.209585592 446.001518404 274.675753951 466.455162729 314.644719066 476.44763271 c 2
 326 479.286517919 l 1
 326 857.000976562 l 1
EndSplineSet
Validated: 524289
EndChar

StartChar: braceright
Encoding: 125 125 94
Width: 847
GlyphClass: 2
Flags: W
HStem: 264 95<359 483> 513 95<359 483>
VStem: 264 219<264 359 513 608> 264 95<15 264 359 513 608 857>
LayerCount: 2
Fore
SplineSet
264 857 m 1xd0
 359 857 l 1
 359 608 l 1xd0
 483 608 l 1
 483 513 l 1xe0
 359 513 l 1
 359 359 l 1xd0
 483 359 l 1
 483 264 l 1xe0
 359 264 l 1
 359 15 l 1
 264 15 l 1
 264 857 l 1xd0
EndSplineSet
Validated: 1
EndChar

StartChar: asciitilde
Encoding: 126 126 95
Width: 847
GlyphClass: 2
Flags: W
HStem: 762 95<15 234 513 732>
LayerCount: 2
Fore
SplineSet
513 857 m 1
 732 857 l 1
 732 762 l 1
 513 762 l 1
 513 857 l 1
234 762 m 1
 15 762 l 1
 15 857 l 1
 234 857 l 1
 234 762 l 1
EndSplineSet
Validated: 1
EndChar

StartChar: quoteleft
Encoding: 8216 8216 96
Width: 847
GlyphClass: 2
Flags: W
HStem: 762 95<264 389>
VStem: 389 94<513 762>
LayerCount: 2
Fore
SplineSet
264 762 m 1
 264 857 l 1
 483 857 l 1
 483 513 l 1
 389 513 l 1
 389 762 l 1
 264 762 l 1
EndSplineSet
Validated: 1
EndChar

StartChar: quoteright
Encoding: 8217 8217 97
Width: 847
GlyphClass: 2
Flags: W
HStem: 762 95<359 483>
VStem: 264 95<513 762>
LayerCount: 2
Fore
SplineSet
264 857 m 1
 483 857 l 1
 483 762 l 1
 359 762 l 1
 359 513 l 1
 264 513 l 1
 264 857 l 1
EndSplineSet
Validated: 1
EndChar

StartChar: quotedblleft
Encoding: 8220 8220 98
Width: 847
GlyphClass: 2
Flags: W
HStem: 513 94.9737<361.925 451>
VStem: 202 94<672.924 857> 451 95<608.286 857>
LayerCount: 2
Fore
SplineSet
202 857 m 1
 296 857 l 1
 296 747 l 2
 296 708.632232857 310.061675633 675.059997358 337.394668352 648.394479544 c 0
 363.402761977 621.736743218 396.05530508 607.973659182 433.272958123 607.973659182 c 0
 439.227661269 607.973659182 445.090514548 608.172074463 451 608.285772837 c 1
 451 857 l 1
 546 857 l 1
 546 513 l 1
 436 513 l 2
 371.08515205 513 316.619246149 535.588821038 270.604521875 581.603545313 c 0
 224.589767499 627.618299689 202 682.085282337 202 747 c 2
 202 857 l 1
EndSplineSet
Validated: 524289
EndChar

StartChar: quotedblright
Encoding: 8221 8221 99
Width: 847
GlyphClass: 2
Flags: W
HStem: 513 95.001<296.001 385.076>
VStem: 202 94.0009<608.001 857.001> 451.001 95<672.956 857.001>
LayerCount: 2
Fore
SplineSet
202.000937396 857.000976562 m 1
 296.000976562 857.000976562 l 1
 296.000976562 608.000976562 l 1
 311.000976562 608.000976562 l 2
 348.73499601 608.000976562 382.177583939 621.708207432 409.458058228 648.251021324 c 0
 436.378026577 674.44307731 450.270685264 708.750381985 451.000976562 746.707352421 c 2
 451.000976562 857.000976562 l 1
 546.000976562 857.000976562 l 1
 546.000976562 747.000976562 l 2
 546.000976562 682.145825314 523.058548579 627.636658564 476.396454688 581.604521875 c 0
 430.381700311 535.589767499 375.914717663 513 311 513 c 2
 202.000039167 513 l 1
 202.000039167 627.666992188 202.000937396 742.333984375 202.000937396 857.000976562 c 1
EndSplineSet
Validated: 524289
EndChar
